<svg xmlns="http://www.w3.org/2000/svg" width="13.12" height="10.792" viewBox="0 0 13.12 10.792">
  <g id="Group_381" data-name="Group 381" transform="translate(-3737.271 -5687.402)">
    <g id="Group_1416" data-name="Group 1416" transform="translate(3737.271 5687.402)">
      <g id="Group_1415" data-name="Group 1415" transform="translate(0 2.718)">
        <path id="Path_1491" data-name="Path 1491" d="M3750.391,5698v-.711a1.6,1.6,0,0,0-1.6-1.6h-9.929a1.6,1.6,0,0,0-1.6,1.6V5698Z" transform="translate(-3737.271 -5695.69)" fill="#11d8dc"/>
        <path id="Path_1492" data-name="Path 1492" d="M3737.271,5706.221v3.023a1.6,1.6,0,0,0,1.6,1.6h9.929a1.6,1.6,0,0,0,1.6-1.6v-3.023Z" transform="translate(-3737.271 -5702.767)" fill="#11d8dc"/>
      </g>
      <path id="Path_1493" data-name="Path 1493" d="M3747.385,5690.509v-.688a1.189,1.189,0,0,1,1.188-1.188h2.261a1.189,1.189,0,0,1,1.188,1.188v.688h1.231v-.688a2.422,2.422,0,0,0-2.42-2.419h-2.261a2.422,2.422,0,0,0-2.42,2.419v.688Z" transform="translate(-3743.24 -5687.402)" fill="#11d8dc"/>
    </g>
  </g>
</svg>
