<?xml version="1.0" encoding="utf-8"?>
<!-- Generator: Adobe Illustrator 28.0.0, SVG Export Plug-In . SVG Version: 6.00 Build 0)  -->
<svg version="1.1" id="Layer_1" xmlns="http://www.w3.org/2000/svg" xmlns:xlink="http://www.w3.org/1999/xlink" x="0px" y="0px"
	 viewBox="0 0 512 512" enable-background="new 0 0 512 512" xml:space="preserve">
<path fill="#FF7D33" d="M279.5,507.3c-45.9,4.3-89-2.7-129.1-21c-40.1-18.3-73.3-45.2-99.5-80.8c-26.2-35.6-41.6-77.6-46.1-126
	c-4.5-48.4,2.8-92.5,22-132.3c19.2-39.8,46.6-72.5,82.4-97.8C144.9,24,186,9.1,232.5,4.8c47.1-4.4,90.6,2.6,130.4,20.8
	c39.8,18.3,72.7,45.1,98.6,80.5c25.9,35.4,41.1,77.5,45.7,126.5c4.5,48.4-2.8,92.5-22,132.3c-19.2,39.9-46.6,72.5-82.4,97.8
	C367.1,488.1,326,502.9,279.5,507.3z"/>
<g>
	<defs>
		<path id="SVGID_1_" d="M279.5,507.3c-45.9,4.3-89-2.7-129.1-21c-40.1-18.3-73.3-45.2-99.5-80.8c-26.2-35.6-41.6-77.6-46.1-126
			c-4.5-48.4,2.8-92.5,22-132.3c19.2-39.8,46.6-72.5,82.4-97.8C144.9,24,186,9.1,232.5,4.8c47.1-4.4,90.6,2.6,130.4,20.8
			c39.8,18.3,72.7,45.1,98.6,80.5c25.9,35.4,41.1,77.5,45.7,126.5c4.5,48.4-2.8,92.5-22,132.3c-19.2,39.9-46.6,72.5-82.4,97.8
			C367.1,488.1,326,502.9,279.5,507.3z"/>
	</defs>
	<clipPath id="SVGID_00000183951337007247690080000000172326919515792572_">
		<use xlink:href="#SVGID_1_"  overflow="visible"/>
	</clipPath>
	<path clip-path="url(#SVGID_00000183951337007247690080000000172326919515792572_)" fill="#FFFFFF" d="M256.4,163.2
		c-23.3-27.8-53.5-43.6-91.6-42.3c21.7-6.8,43.1-6.6,64.1,1.7c7.6,3,15,6.6,21.8,11.2c5.7,3.9,9.7,3.3,15.2-0.2
		c27.9-18.3,58.3-29.4,91.9-30.7c3.9-0.2,7.8-0.1,12.6-0.2c-20.9,8.5-41.2,15.1-59.9,25C292,137.4,275.4,150.5,256.4,163.2z"/>
	<path clip-path="url(#SVGID_00000183951337007247690080000000172326919515792572_)" fill="#FFFFFF" d="M340.8,396.9
		c-76.9-91.6-176-143.4-301.5-139.4c71.6-22.2,142-21.9,211.1,5.7c24.9,9.9,49.5,21.8,71.6,36.8c18.7,12.7,32,11,49.9-0.7
		c91.8-60.1,191.8-96.8,302.5-101.1c12.8-0.5,25.6-0.4,41.4-0.6c-68.6,28-135.8,49.6-197.1,82.1
		C457.9,311.9,403.1,355.2,340.8,396.9z"/>
</g>
</svg>
