<svg width="29" height="28" viewBox="0 0 29 28" fill="none" xmlns="http://www.w3.org/2000/svg">
<mask id="mask0_42_132" style="mask-type:luminance" maskUnits="userSpaceOnUse" x="0" y="0" width="29" height="28">
<path d="M28.211 0.13501H0.448975V27.5H28.211V0.13501Z" fill="white"/>
</mask>
<g mask="url(#mask0_42_132)">
<path d="M11.487 10.083L17.709 17.312L19.569 9.28103L11.488 10.081M10.988 10.61L8.90998 18.634L16.992 17.659L10.992 10.617M19.512 8.60103L15.432 2.56103L11.419 9.42303L19.51 8.59603M2.92097 13.329L8.25597 18.323L10.339 10.373L2.92097 13.329ZM13.196 25.263L17.062 18.452L9.09897 19.244L13.199 25.263M18.349 17.334L25.611 14.495L20.411 9.61403L18.349 17.334ZM10.749 9.25403L14.726 2.43403L6.36197 4.18903L10.749 9.25403ZM17.834 18.563L13.88 25.385L22.222 23.618L17.834 18.563ZM5.87397 4.62003L2.87397 12.665L10.211 9.67403L5.87397 4.62003ZM22.749 23.22L25.472 15.714L25.196 15.382L18.527 18.134L22.749 23.22ZM8.38997 19.434L4.68997 22.625L11.884 25.067L12.057 24.784L8.38997 19.434ZM7.95497 18.94L3.19897 14.497L2.91297 14.697L4.26197 22.119L7.95597 18.939M23.849 5.17103L16.736 2.74403C17.5259 4.39972 18.5109 5.95508 19.67 7.37703C19.8525 7.53418 20.0721 7.64203 20.3081 7.69034C20.544 7.73865 20.7884 7.72581 21.018 7.65303C22.0082 6.88035 22.9534 6.05166 23.849 5.17103ZM24.372 5.74603C23.105 6.79503 22.09 7.59303 21.143 8.46303C21.0705 8.60325 21.0356 8.75981 21.0416 8.91751C21.0475 9.07521 21.0942 9.22869 21.177 9.36303C22.52 10.615 23.916 11.811 25.65 13.336L24.369 5.74603M21.21 24.525L14.505 25.925C17.841 28.106 17.299 28.188 21.21 24.525ZM14.096 1.88003C11.196 -0.258967 10.296 -0.0589669 7.49597 3.27003L14.096 1.88003ZM4.88697 5.35603C0.919975 8.44903 0.632975 9.28003 2.50897 11.746L4.88697 5.35603ZM23.816 22.397C27.974 18.643 27.937 19.53 26.166 16.259C25.552 17.753 24.95 19.192 24.373 20.64C24.19 21.097 24.073 21.581 23.816 22.397ZM16.523 1.96203C17.658 2.36203 18.61 2.69803 19.567 3.02203C20.524 3.34603 21.473 3.64703 22.426 3.95903C21.8372 3.15179 21.1473 2.4235 20.373 1.79203C18.673 0.287033 18.618 0.292033 16.523 1.96203ZM6.14897 23.812L6.01797 24.038C6.76397 24.708 7.50597 25.383 8.25597 26.048C9.90897 27.514 10.109 27.507 12.033 25.831L6.14897 23.812ZM2.89597 20.354L3.24197 20.229L2.18997 14.474C1.47697 15.333 -0.0040254 15.774 0.837975 17.191C1.48097 18.271 2.20697 19.301 2.89597 20.354ZM26.419 13.176L27.019 13.358C27.333 12.543 28.091 11.569 27.869 10.946C27.2741 9.68665 26.5359 8.50013 25.669 7.41003L25.351 7.54503L26.427 13.176M0.860975 10.694L0.448975 14.846C2.08997 13.234 2.12697 12.857 0.860975 10.694ZM27.767 16.926L28.211 13.005C26.673 14.223 26.573 14.848 27.767 16.926ZM15.249 27.5C13.937 26.257 12.695 25.943 11.501 27.5H15.249ZM17.185 0.329033L12.859 0.134033C15.437 1.72703 15.543 1.73503 17.185 0.329033Z" fill="#11D8DC"/>
<path d="M11.487 10.0841L19.568 9.28406L17.708 17.3151L11.486 10.0861" fill="#0097D3"/>
<path d="M10.99 10.6121L16.99 17.6541L8.90796 18.6291L10.988 10.6121" fill="#FD6728"/>
<path d="M19.5099 8.59603L11.4189 9.42303L15.4259 2.55603L19.506 8.59603" fill="#11D8DC"/>
<path d="M2.92102 13.328L10.339 10.373L8.25602 18.3221L2.92102 13.328Z" fill="#11D8DC"/>
<path d="M13.194 25.263L9.09399 19.244L17.057 18.452L13.194 25.263Z" fill="#11D8DC"/>
<path d="M18.352 17.339L20.41 9.61902L25.61 14.5L18.348 17.339" fill="#11D8DC"/>
<path d="M10.7489 9.25906L6.36194 4.18906L14.7259 2.43506L10.7489 9.25906Z" fill="#11D8DC"/>
<path d="M17.834 18.563L22.222 23.617L13.88 25.384L17.834 18.562" fill="#11D8DC"/>
<path d="M5.87302 4.62001L10.211 9.67101L2.86902 12.662L5.86902 4.617" fill="#11D8DC"/>
<path d="M22.745 23.22L18.527 18.135L25.192 15.382L25.468 15.714L22.745 23.22Z" fill="#11D8DC"/>
<path d="M8.38999 19.4351L12.054 24.7841L11.881 25.0671L4.68799 22.6271L8.38799 19.4361" fill="#11D8DC"/>
<path d="M7.95499 18.9411L4.26099 22.121L2.91199 14.703L3.19799 14.5031L7.95499 18.9471" fill="#11D8DC"/>
<path d="M23.846 5.17105C22.9514 6.05159 22.0072 6.88028 21.018 7.65305C20.7884 7.72582 20.544 7.73866 20.3081 7.69035C20.0721 7.64205 19.8525 7.53419 19.67 7.37705C18.5112 5.95634 17.5262 4.40234 16.736 2.74805L23.846 5.17505" fill="#11D8DC"/>
<path d="M24.37 5.74606L25.652 13.3321C23.918 11.8071 22.522 10.6111 21.179 9.35906C21.0962 9.22471 21.0496 9.07124 21.0436 8.91354C21.0377 8.75584 21.0726 8.59927 21.145 8.45906C22.093 7.58906 23.107 6.79107 24.374 5.74207" fill="#11D8DC"/>
<path d="M21.21 24.522C17.298 28.185 17.84 28.103 14.505 25.922L21.21 24.522Z" fill="#11D8DC"/>
<path d="M14.096 1.88005L7.49597 3.27005C10.296 -0.0589509 11.196 -0.258951 14.096 1.88005Z" fill="#11D8DC"/>
<path d="M4.88694 5.35602L2.50894 11.746C0.632937 9.28002 0.919937 8.44602 4.88694 5.35602Z" fill="#11D8DC"/>
<path d="M23.8109 22.397C24.0669 21.581 24.1849 21.097 24.3679 20.64C24.9459 19.192 25.5479 17.753 26.1609 16.259C27.9319 19.529 27.9689 18.643 23.8109 22.397Z" fill="#11D8DC"/>
<path d="M16.5229 1.96304C18.6169 0.288045 18.6699 0.288045 20.3739 1.79304C21.1489 2.42441 21.8395 3.1527 22.4289 3.96004C21.4759 3.64804 20.5199 3.34405 19.5699 3.02305C18.6199 2.70205 17.6599 2.35904 16.5259 1.96304" fill="#11D8DC"/>
<path d="M6.15102 23.812L12.035 25.83C10.111 27.507 9.91202 27.514 8.25802 26.047C7.50802 25.382 6.76602 24.707 6.02002 24.037L6.15102 23.811" fill="#11D8DC"/>
<path d="M2.89494 20.354C2.20594 19.302 1.48094 18.2711 0.836944 17.1911C-0.00505579 15.7781 1.47494 15.3331 2.18894 14.4741L3.23594 20.229L2.88994 20.354" fill="#11D8DC"/>
<path d="M26.416 13.176L25.34 7.54504L25.658 7.41003C26.525 8.50008 27.2632 9.68661 27.858 10.946C28.081 11.569 27.323 12.546 27.008 13.358L26.408 13.176" fill="#11D8DC"/>
<path d="M0.860975 10.6951C2.12697 12.8571 2.08997 13.2421 0.448975 14.8421L0.860975 10.6901" fill="#FD6728"/>
<path d="M27.7659 16.926C26.5719 14.848 26.6719 14.226 28.2099 13.005L27.7659 16.926Z" fill="#FD6728"/>
<path d="M15.247 27.5H11.499C12.693 25.943 13.935 26.257 15.247 27.5Z" fill="#FD6728"/>
<path d="M17.185 0.32901C15.543 1.72901 15.437 1.72901 12.859 0.13501L17.185 0.32901Z" fill="#FD6728"/>
</g>
</svg>
