<svg width="120" height="119" viewBox="0 0 120 119" fill="none" xmlns="http://www.w3.org/2000/svg">
<mask id="mask0_3_111" style="mask-type:luminance" maskUnits="userSpaceOnUse" x="-1" y="0" width="122" height="119">
<path d="M120.002 0.265991H-0.00100708V118.553H120.002V0.265991Z" fill="white"/>
</mask>
<g mask="url(#mask0_3_111)">
<path d="M47.711 43.265L74.605 74.517L82.644 39.803L47.711 43.265ZM45.564 45.551L36.573 80.209L71.506 75.996L45.564 45.554M82.393 36.839L64.756 10.73L47.418 40.412L82.393 36.839ZM10.685 57.296L33.746 78.882L42.746 44.521L10.685 57.296ZM55.099 108.883L71.808 79.442L37.388 82.865L55.099 108.883ZM77.388 74.63L108.779 62.358L86.285 41.258L77.385 74.628M44.521 39.683L61.713 10.206L25.558 17.788L44.521 39.683ZM75.146 79.922L58.055 109.409L94.115 101.769L75.146 79.922ZM23.446 19.654L10.462 54.429L42.199 41.498L23.447 19.653M96.374 100.053L108.144 67.61L106.952 66.173L78.142 78.073L96.374 100.053ZM34.326 83.69L18.326 97.482L49.426 108.038L50.172 106.813L34.326 83.69ZM32.446 81.554L11.884 62.346L10.647 63.216L16.477 95.298L32.446 81.554ZM101.135 22.033L70.399 11.542C73.8154 18.6978 78.0745 25.4198 83.086 31.565C84.086 32.815 87.747 33.576 88.911 32.757C92.957 29.909 96.444 26.266 101.136 22.03M103.395 24.516C97.917 29.053 93.532 32.501 89.435 36.265C88.787 36.865 88.876 39.479 89.581 40.136C95.387 45.548 101.419 50.719 108.917 57.311L103.399 24.519M89.742 105.693L60.757 111.745C75.177 121.172 72.832 121.526 89.742 105.693ZM58.988 7.81098C46.446 -1.43502 42.562 -0.569016 30.438 13.82L58.987 7.80998M19.182 22.833C2.03599 36.204 0.798992 39.797 8.89899 50.456L19.179 22.833M100.999 96.493C118.975 80.265 118.817 84.098 111.161 69.965C108.508 76.424 105.906 82.642 103.409 88.901C102.62 90.879 102.109 92.967 101.002 96.495M69.481 8.16498C74.381 9.87598 78.501 11.347 82.641 12.747C86.748 14.135 90.879 15.447 94.999 16.798C92.4546 13.3083 89.4725 10.1599 86.126 7.42998C78.761 0.922984 78.534 0.923984 69.481 8.16498ZM24.646 102.611L24.082 103.587C27.306 106.487 30.513 109.4 33.756 112.276C40.903 118.613 41.766 118.584 50.082 111.336L24.646 102.611ZM10.574 87.665L12.068 87.125L7.52299 62.248C4.43899 65.965 -1.95901 67.886 1.67999 73.993C4.46099 78.665 7.59899 83.115 10.574 87.665ZM112.252 56.636L114.836 57.424C116.194 53.901 119.471 49.692 118.509 46.998C116.535 41.473 112.289 36.76 108.978 31.713L107.602 32.297L112.252 56.637M1.77999 45.91C1.14999 52.254 0.618993 57.607 -0.00100708 63.856C7.09099 56.904 7.25099 55.256 1.77999 45.91ZM118.08 72.847L119.999 55.898C113.352 61.163 112.92 63.865 118.08 72.847ZM63.965 118.553C58.293 113.18 52.926 111.825 47.765 118.553H63.965ZM72.341 1.10298L53.641 0.264984C64.783 7.14998 65.241 7.16598 72.341 1.10298Z" fill="#11D8DC"/>
<path d="M47.711 43.27L82.643 39.805L74.605 74.517L47.711 43.27Z" fill="#0097D3"/>
<path d="M45.565 45.554L71.506 75.995L36.573 80.208L45.565 45.554Z" fill="#FD6728"/>
<path d="M82.393 36.841L47.418 40.414L64.756 10.732L82.393 36.841Z" fill="#11D8DC"/>
<path d="M10.685 57.296L42.751 44.522L33.751 78.883L10.685 57.296Z" fill="#11D8DC"/>
<path d="M55.096 108.883L37.383 82.866L71.802 79.442L55.096 108.883Z" fill="#11D8DC"/>
<path d="M77.387 74.63L86.287 41.26L108.781 62.36L77.39 74.633" fill="#11D8DC"/>
<path d="M44.521 39.683L25.558 17.788L61.713 10.206L44.521 39.683Z" fill="#11D8DC"/>
<path d="M75.146 79.922L94.115 101.769L58.055 109.409L75.146 79.922Z" fill="#11D8DC"/>
<path d="M23.447 19.654L42.196 41.499L10.461 54.429L23.447 19.654Z" fill="#11D8DC"/>
<path d="M96.374 100.054L78.142 78.072L106.952 66.172L108.144 67.609L96.374 100.052" fill="#11D8DC"/>
<path d="M34.326 83.69L50.165 106.813L49.419 108.038L18.323 97.482L34.323 83.69" fill="#11D8DC"/>
<path d="M32.445 81.552L16.476 95.298C14.342 83.556 12.494 73.386 10.646 63.216L11.883 62.345L32.445 81.552Z" fill="#11D8DC"/>
<path d="M101.135 22.033C96.443 26.269 92.956 29.911 88.91 32.76C87.746 33.579 84.087 32.818 83.085 31.568C78.0747 25.423 73.8165 18.7013 70.401 11.546L101.135 22.033Z" fill="#11D8DC"/>
<path d="M103.395 24.519L108.917 57.308C101.417 50.716 95.388 45.546 89.581 40.133C88.881 39.476 88.786 36.857 89.435 36.262C93.535 32.5 97.916 29.055 103.395 24.519Z" fill="#11D8DC"/>
<path d="M89.742 105.69C72.832 121.523 75.177 121.169 60.757 111.742L89.742 105.69Z" fill="#11D8DC"/>
<path d="M58.987 7.81098L30.438 13.821C42.562 -0.569019 46.446 -1.43402 58.987 7.81098Z" fill="#11D8DC"/>
<path d="M19.182 22.833L8.90298 50.456C0.792979 39.797 2.03598 36.204 19.182 22.833Z" fill="#11D8DC"/>
<path d="M100.997 96.493C102.103 92.965 102.615 90.877 103.404 88.899C105.904 82.64 108.504 76.422 111.156 69.963C118.811 84.099 118.97 80.263 100.997 96.493Z" fill="#11D8DC"/>
<path d="M69.481 8.16499C78.534 0.924986 78.76 0.922986 86.125 7.42899C89.4714 10.159 92.4535 13.3074 94.998 16.797C90.878 15.45 86.747 14.134 82.64 12.746C78.5 11.346 74.385 9.87599 69.48 8.16399" fill="#11D8DC"/>
<path d="M24.645 102.611L50.081 111.336C41.765 118.584 40.902 118.613 33.755 112.276C30.512 109.4 27.305 106.485 24.081 103.587L24.645 102.611Z" fill="#11D8DC"/>
<path d="M10.574 87.665C7.596 83.116 4.461 78.665 1.68 73.994C-1.958 67.886 4.442 65.963 7.523 62.248C9.03767 70.5407 10.5527 78.833 12.068 87.125L10.574 87.665Z" fill="#11D8DC"/>
<path d="M112.251 56.636L107.601 32.296L108.977 31.712C112.288 36.759 116.534 41.472 118.508 46.997C119.47 49.691 116.193 53.897 114.835 57.423L112.251 56.635" fill="#11D8DC"/>
<path d="M1.77999 45.91C7.25099 55.257 7.09099 56.903 -0.00100708 63.857C0.618993 57.608 1.14999 52.257 1.77999 45.911" fill="#FD6728"/>
<path d="M118.082 72.847C112.922 63.865 113.355 61.163 120.002 55.898L118.082 72.847Z" fill="#FD6728"/>
<path d="M63.964 118.553H47.764C52.927 111.825 58.293 113.18 63.964 118.553Z" fill="#FD6728"/>
<path d="M72.34 1.10299C65.24 7.16299 64.783 7.14999 53.64 0.265991L72.34 1.10299Z" fill="#FD6728"/>
</g>
</svg>
