<svg width="9" height="12" viewBox="0 0 9 12" fill="none" xmlns="http://www.w3.org/2000/svg">
<path d="M0.0239868 11.369V4.38699H1.30099V2.73499C1.41711 2.01234 1.78688 1.35468 2.34397 0.879961C2.90107 0.405239 3.60906 0.144501 4.34099 0.144501C5.07291 0.144501 5.7809 0.405239 6.338 0.879961C6.8951 1.35468 7.26486 2.01234 7.38099 2.73499V4.38699H8.73199V11.369H0.0239868ZM6.46399 4.38699V2.73499C6.35349 2.25507 6.08354 1.82679 5.69822 1.5201C5.31289 1.21341 4.83497 1.04642 4.34249 1.04642C3.85001 1.04642 3.37208 1.21341 2.98676 1.5201C2.60143 1.82679 2.33148 2.25507 2.22099 2.73499V4.38699H6.46399Z" fill="#55E0E3"/>
</svg>
