<svg width="12" height="12" viewBox="0 0 12 12" fill="none" xmlns="http://www.w3.org/2000/svg">
<path d="M5.95402 6.57402C7.63904 6.57402 9.00502 5.20804 9.00502 3.52302C9.00502 1.83799 7.63904 0.472015 5.95402 0.472015C4.26899 0.472015 2.90302 1.83799 2.90302 3.52302C2.90302 5.20804 4.26899 6.57402 5.95402 6.57402Z" fill="#11D8DC"/>
<path d="M0.0820007 11.989V10.263L0.225001 10.214C0.128001 10.203 0.0820007 10.195 0.0820007 10.189C0.789066 9.32492 1.68235 8.63189 2.69505 8.16173C3.70774 7.69158 4.81363 7.45648 5.93 7.47402C7.05671 7.4699 8.1703 7.71577 9.19053 8.1939C10.2108 8.67202 11.1122 9.37051 11.83 10.239C11.836 10.2456 11.8405 10.2535 11.843 10.262V10.274V11.989H0.0820007Z" fill="#11D8DC"/>
</svg>
