<?xml version="1.0" encoding="utf-8"?>
<!-- Generator: Adobe Illustrator 26.1.0, SVG Export Plug-In . SVG Version: 6.00 Build 0)  -->
<svg version="1.1" id="Layer_1" xmlns="http://www.w3.org/2000/svg" xmlns:xlink="http://www.w3.org/1999/xlink" x="0px" y="0px"
	 viewBox="0 0 495.6 495.6" style="enable-background:new 0 0 495.6 495.6;" xml:space="preserve">
<style type="text/css">
	.st0{fill:#FFCD00;}
	.st1{fill:#FF4AFF;}
	.st2{fill:#FFFFFF;}
	.st3{fill:#001363;}
	.st4{fill:#FF4F19;}
	.st5{fill:#1800D0;}
	.st6{fill:#00C37A;}
</style>
<g>
	<g>
		<rect x="87.6" y="59.1" class="st0" width="72.4" height="65.6"/>
		<g>
			<path class="st0" d="M223.4,482H24.2V198.6c0-12.7,12.7-23,28.5-23H195c15.7,0,28.5,10.3,28.5,23V482H223.4z"/>
		</g>
		<g>
			<rect x="24.2" y="225.7" class="st1" width="199.2" height="256.3"/>
		</g>
		<rect x="91.5" y="277" class="st2" width="131.9" height="153.6"/>
		<path class="st1" d="M123.8,116.9L123.8,116.9c-40.2,0-72.7,26.3-72.7,58.7h145.4C196.5,143.2,164,116.9,123.8,116.9z"/>
	</g>
	<g>
		<path class="st3" d="M24.2,390.8c5.5,0,10-3.6,10-8v-62.9c0-4.4-4.5-8-10-8s-10,3.6-10,8v62.9C14.3,387.2,18.7,390.8,24.2,390.8z"
			/>
		<path class="st3" d="M151.2,473.9h-117v-48.3c0-4.4-4.5-8-10-8s-10,3.6-10,8V482c0,4.4,4.5,8,10,8h126.9c5.5,0,10-3.6,10-8
			S156.7,473.9,151.2,473.9z"/>
		<path class="st3" d="M233.4,224v-25.4c0-14-11.5-25.8-27.3-29.7c-2.5-20.2-16.3-37.8-36.1-48.6V59.1c0-4.4-4.5-8-10-8H87.6
			c-5.5,0-10,3.6-10,8v61.1C57.7,131,44,148.6,41.5,168.8c-15.8,3.9-27.3,15.7-27.3,29.7v25.3c-0.2,0.6-0.3,1.2-0.3,1.8
			s0.1,1.2,0.3,1.8V277c0,4.4,4.5,8,10,8s10-3.6,10-8v-43.3h179.3V269h-122c-5.5,0-10,3.6-10,8v153.6c0,4.4,4.5,8,10,8h122v35.3
			h-9.3c-5.5,0-10,3.6-10,8s4.5,8,10,8h19.2c5.5,0,10-3.6,10-8V227.4c0.1-0.6,0.2-1.1,0.2-1.7S233.5,224.5,233.4,224z M213.4,422.6
			h-112V285.1h112V422.6z M97.6,67.2H150v45.2c-8.2-2.2-17-3.5-26.2-3.5s-18,1.3-26.2,3.5C97.6,112.4,97.6,67.2,97.6,67.2z
			 M123.8,125c31.2,0,57.2,18.5,62,42.6h-124C66.6,143.4,92.6,125,123.8,125z M52.4,183.6h142.8c10.1,0.1,18.2,6.7,18.2,14.9v19.1
			H34.2v-19.1C34.2,190.4,42.4,183.8,52.4,183.6z"/>
		<path class="st4" d="M284.1,82.9c0-4.4-4.5-8-10-8h-7.5l10.9-3.2c5.2-1.5,7.9-6.1,6-10.3s-7.6-6.3-12.7-4.8l-64.5,18.8
			c-0.1,0-0.1,0.1-0.2,0.1c-0.2,0.1-0.3,0.1-0.5,0.2s-0.4,0.2-0.6,0.3c-0.2,0.1-0.5,0.2-0.7,0.3c-0.1,0.1-0.2,0.1-0.4,0.2
			s-0.4,0.2-0.6,0.4c-0.2,0.1-0.4,0.3-0.6,0.4c-0.1,0.1-0.2,0.1-0.3,0.2c-0.2,0.1-0.3,0.3-0.5,0.5s-0.3,0.3-0.5,0.5
			c-0.1,0.1-0.2,0.2-0.2,0.3c-0.1,0.2-0.2,0.3-0.4,0.5c-0.1,0.2-0.2,0.3-0.3,0.5c-0.1,0.1-0.1,0.2-0.2,0.4c0,0.1-0.1,0.1-0.1,0.2
			c-0.1,0.1-0.1,0.3-0.1,0.4c-0.1,0.2-0.1,0.4-0.2,0.5c0,0.1-0.1,0.3-0.1,0.4c0,0.2-0.1,0.4-0.1,0.6s0,0.4-0.1,0.6
			c0,0.1,0,0.1,0,0.2s0,0.1,0,0.2c0,0.2,0,0.4,0.1,0.6c0,0.2,0.1,0.4,0.1,0.6c0,0.1,0.1,0.3,0.1,0.4c0.1,0.2,0.1,0.4,0.2,0.6
			c0,0.1,0.1,0.2,0.1,0.4l0.1,0.1c0.1,0.1,0.1,0.3,0.2,0.4c0.1,0.2,0.3,0.5,0.5,0.7s0.3,0.4,0.5,0.7c0.1,0.1,0.1,0.2,0.2,0.2
			c0.1,0.1,0.2,0.2,0.3,0.2l0.1,0.1c0.2,0.2,0.4,0.4,0.6,0.6c0.2,0.2,0.5,0.3,0.7,0.5c0.1,0.1,0.3,0.2,0.4,0.3
			c0.1,0,0.1,0.1,0.1,0.1c0.1,0,0.2,0.1,0.3,0.1c0.2,0.1,0.5,0.2,0.8,0.3c0.3,0.1,0.7,0.3,1,0.4c0.1,0,0.1,0.1,0.2,0.1l64.5,18.8
			c1.1,0.3,2.3,0.5,3.4,0.5c4.1,0,7.9-2,9.4-5.3c1.9-4.2-0.8-8.8-6-10.3L266.7,91h7.5C279.7,91,284.1,87.4,284.1,82.9z"/>
		<path class="st4" d="M374.3,74.9h-64.5c-5.5,0-10,3.6-10,8s4.5,8,10,8h64.5c5.5,0,10-3.6,10-8S379.8,74.9,374.3,74.9z"/>
		<path class="st4" d="M471,74.9h-64.5c-5.5,0-10,3.6-10,8s4.5,8,10,8H471c5.5,0,10-3.6,10-8S476.5,74.9,471,74.9z"/>
		<path class="st5" d="M306.1,62.9c1.1,0,2.3-0.2,3.4-0.5L374,43.7c5.2-1.5,7.9-6.1,6-10.3s-7.6-6.3-12.7-4.8l-64.5,18.8
			c-5.2,1.5-7.9,6.1-6,10.3C298.2,60.9,302,62.9,306.1,62.9z"/>
		<path class="st5" d="M209.9,90.8c1.1,0,2.3-0.2,3.4-0.5l64.5-18.8c5.2-1.5,7.9-6.1,6-10.3s-7.6-6.3-12.7-4.8l-64.5,18.8
			c-5.2,1.5-7.9,6.1-6,10.3C202,88.8,205.8,90.8,209.9,90.8z"/>
		<path class="st5" d="M396.4,36.8c1.1,0,2.3-0.2,3.4-0.5l64.5-18.8c5.2-1.5,7.9-6.1,6-10.3s-7.6-6.3-12.7-4.8L393,21.2
			c-5.2,1.5-7.9,6.1-6,10.3C388.5,34.8,392.3,36.8,396.4,36.8z"/>
		<path class="st6" d="M464.2,148.3l-64.5-18.8c-5.2-1.5-10.9,0.7-12.7,4.8c-1.9,4.2,0.8,8.8,6,10.3l64.5,18.8
			c1.1,0.3,2.3,0.5,3.4,0.5c4.1,0,7.9-2,9.4-5.3C472.1,154.4,469.4,149.8,464.2,148.3z"/>
		<path class="st6" d="M367.8,120.2l-64.5-18.8c-5.2-1.5-10.9,0.7-12.7,4.8c-1.9,4.2,0.8,8.8,6,10.3l64.5,18.8
			c1.1,0.3,2.3,0.5,3.4,0.5c4.1,0,7.9-2,9.4-5.3C375.7,126.3,373,121.7,367.8,120.2z"/>
		<path class="st6" d="M277.4,94.5l-64.5-18.8c-5.2-1.5-10.9,0.7-12.7,4.8c-1.9,4.2,0.8,8.8,6,10.3l64.5,18.8
			c1.1,0.3,2.3,0.5,3.4,0.5c4.1,0,7.9-2,9.4-5.3C285.2,100.6,282.5,96,277.4,94.5z"/>
	</g>
</g>
</svg>
