<?xml version="1.0" encoding="utf-8"?>
<!-- Generator: Adobe Illustrator 26.1.0, SVG Export Plug-In . SVG Version: 6.00 Build 0)  -->
<svg version="1.1" id="Capa_1" xmlns="http://www.w3.org/2000/svg" xmlns:xlink="http://www.w3.org/1999/xlink" x="0px" y="0px"
	 viewBox="0 0 512 512" style="enable-background:new 0 0 512 512;" xml:space="preserve">
<style type="text/css">
	.st0{fill:#FF6728;}
	.st1{fill:#FFF4F4;}
	.st2{fill:#FF6326;}
	.st3{fill:#FFE997;}
	.st4{fill:#E1DFF4;}
	.st5{fill:#000053;}
</style>
<g>
	<g>
		<path class="st0" d="M348.9,129.1L335,81.9H177.2l-13.9,47.2H46.1c-18.6,0-33.7,15.1-33.7,33.7v233.7c0,18.6,15.1,33.7,33.7,33.7
			h420c18.6,0,33.7-15.1,33.7-33.7V162.7c0-18.6-15.1-33.7-33.7-33.7H348.9z"/>
		<circle class="st1" cx="251.5" cy="274.9" r="106.2"/>
		<rect x="63.9" y="63.9" class="st2" width="44.7" height="65.1"/>
		<rect x="414.7" y="169.7" class="st3" width="42.3" height="42.3"/>
		<g>
			<path class="st4" d="M203.9,305.5c-6.3,0-11.4-5.1-11.4-11.4c0-38.7,31.5-70.2,70.2-70.2c6.3,0,11.4,5.1,11.4,11.4
				c0,6.3-5.1,11.4-11.4,11.4c-26.2,0-47.5,21.3-47.5,47.5C215.3,300.4,210.2,305.5,203.9,305.5z"/>
		</g>
	</g>
	<g>
		<path class="st5" d="M226.6,93.3h8.3c6.3,0,11.4-5.1,11.4-11.4s-5.1-11.4-11.4-11.4h-8.3c-6.3,0-11.4,5.1-11.4,11.4
			S220.3,93.3,226.6,93.3z"/>
		<path class="st5" d="M466,117.7H357.3l-11.5-39c-1.4-4.8-5.9-8.2-10.9-8.2H282c-6.3,0-11.4,5.1-11.4,11.4s5.1,11.4,11.4,11.4h44.3
			l11.5,39c1.4,4.8,5.9,8.2,10.9,8.2H466c12.3,0,22.3,10,22.3,22.3v103.8c0,6.3,5.1,11.4,11.4,11.4c6.3,0,11.4-5.1,11.4-11.4V162.7
			C511.1,137.9,490.9,117.7,466,117.7z"/>
		<path class="st5" d="M499.7,297.5c-6.3,0-11.4,5.1-11.4,11.4v8.9c0,6.3,5.1,11.4,11.4,11.4c6.3,0,11.4-5.1,11.4-11.4v-8.9
			C511.1,302.6,506,297.5,499.7,297.5z"/>
		<path class="st5" d="M499.7,353c-6.3,0-11.4,5.1-11.4,11.4v32c0,12.3-10,22.3-22.3,22.3H46c-12.3,0-22.3-10-22.3-22.3V162.7
			c0-12.3,10-22.3,22.3-22.3h117.2c5.1,0,9.5-3.3,10.9-8.2L188,85.1c1.8-6-1.7-12.4-7.7-14.1c-6-1.8-12.4,1.7-14.1,7.7l-11.5,39
			H75.2V71.4h33.3c6.3,0,11.4-5.1,11.4-11.4s-5.1-11.4-11.4-11.4H63.8c-6.3,0-11.4,5.1-11.4,11.4v57.6H46
			c-24.9,0-45.1,20.2-45.1,45.1v233.7c0,24.9,20.2,45.1,45.1,45.1h420c24.9,0,45.1-20.2,45.1-45.1v-32
			C511.1,358.1,506,353,499.7,353z"/>
		<path class="st5" d="M308.1,358.9c-5.8,4-7.4,11.9-3.4,17.7c4,5.9,11.9,7.4,17.7,3.4c35-23.7,56-63,56-105.2
			c0-70-56.9-126.9-126.9-126.9c-70,0-126.9,56.9-126.9,126.9c0,70,56.9,126.9,126.9,126.9c7.1,0,12.8-5.7,12.8-12.8
			s-5.7-12.8-12.8-12.8c-55.9,0-101.4-45.5-101.4-101.4s45.5-101.4,101.4-101.4c55.9,0,101.4,45.5,101.4,101.4
			C352.8,308.6,336,340,308.1,358.9z"/>
		<path class="st1" d="M456.8,223.4c6.3,0,11.4-5.1,11.4-11.4v-42.3c0-6.3-5.1-11.4-11.4-11.4h-42.3c-6.3,0-11.4,5.1-11.4,11.4V212
			c0,6.3,5.1,11.4,11.4,11.4H456.8z M425.9,181.1h19.5v19.5h-19.5V181.1z"/>
		<path class="st5" d="M179.2,289.5c0,7.1,5.7,12.8,12.8,12.8c7.1,0,12.8-5.7,12.8-12.8c0-29.4,23.9-53.3,53.3-53.3
			c7.1,0,12.8-5.7,12.8-12.8s-5.7-12.8-12.8-12.8C214.6,210.6,179.2,246,179.2,289.5z"/>
	</g>
</g>
</svg>
