<?xml version="1.0" encoding="utf-8"?>
<!-- Generator: Adobe Illustrator 28.0.0, SVG Export Plug-In . SVG Version: 6.00 Build 0)  -->
<svg version="1.1" id="Layer_1" xmlns="http://www.w3.org/2000/svg" xmlns:xlink="http://www.w3.org/1999/xlink" x="0px" y="0px"
	 viewBox="0 0 512 206.2" enable-background="new 0 0 512 206.2" xml:space="preserve">
<g>
	<g>
		<g>
			<path fill="#FFFFFF" d="M20,155.8V80.3H3V59.6h17v-3c0-7.4,1.5-13.7,4.4-18.8c2.9-5.1,7.2-9,12.6-11.8C42.6,23.3,49,22,56.4,22
				c1.4,0,3,0.1,4.7,0.3c1.7,0.2,3.2,0.4,4.3,0.6v20c-1.2-0.2-2.3-0.4-3.3-0.4c-1-0.1-1.9-0.1-2.7-0.1c-5.2,0-9.2,1.1-12,3.4
				c-2.8,2.3-4.2,5.9-4.2,10.9v3h42.1v20.7H43.2v75.5H20z M80.5,155.8V22h23.3v133.8H80.5z"/>
			<path fill="#FFFFFF" d="M172.1,157.9c-9.3,0-17.8-2.2-25.5-6.5c-7.7-4.4-13.9-10.3-18.5-17.9c-4.6-7.5-6.9-16.1-6.9-25.8
				c0-9.7,2.3-18.3,6.9-25.8c4.6-7.5,10.7-13.5,18.4-17.9c7.7-4.4,16.2-6.5,25.6-6.5c9.5,0,18.2,2.2,25.8,6.5
				c7.7,4.4,13.8,10.3,18.3,17.8c4.5,7.5,6.8,16.1,6.8,25.9c0,9.7-2.3,18.3-6.9,25.8c-4.6,7.5-10.7,13.5-18.4,17.9
				C190,155.8,181.5,157.9,172.1,157.9z M172.1,136.7c5.3,0,9.9-1.2,13.9-3.7c3.9-2.5,7.1-5.9,9.4-10.3c2.3-4.4,3.4-9.4,3.4-14.9
				c0-5.5-1.1-10.5-3.4-14.9c-2.3-4.4-5.4-7.8-9.4-10.3c-4-2.5-8.6-3.7-13.9-3.7c-5.2,0-9.8,1.2-13.8,3.7c-4,2.5-7.2,5.9-9.5,10.3
				c-2.3,4.4-3.4,9.3-3.4,14.9c0,5.5,1.1,10.5,3.4,14.9c2.3,4.4,5.5,7.9,9.5,10.3C162.3,135.5,166.9,136.7,172.1,136.7z"/>
		</g>
	</g>
	<g>
		<path fill="#FFFFFF" d="M283.8,155.7V120l7.2,14.3l-29-31.3l13.8,2.8l-31.5,49.9h-26.5l36.2-57.5l-35.5-38.7h28.8l45.3,47.4
			l-8.8,2.7V21.9h23.3v133.8H283.8z"/>
	</g>
	<g>
		<path fill="#FFFFFF" d="M316,156.5V22.7h23.3v87.7l-8.8-2.7l45.3-47.4h28.8L369,99.1l36.2,57.5h-26.5l-31.5-49.9l13.8-2.8
			l-29,31.3l7.2-14.3v35.7H316z"/>
		<path fill="#FFFFFF" d="M429.9,195.4c-2.6,0-5.1-0.2-7.6-0.6c-2.5-0.4-4.7-1.1-6.7-2.2v-19.3c1.5,0.4,3.4,0.7,5.6,1.1
			c2.2,0.4,4.2,0.5,6.1,0.5c5.3,0,9.2-1.2,11.6-3.6c2.4-2.4,4.6-5.6,6.5-9.6l6.4-14.9l-0.4,19.4L409.4,60.4h24.9l29.4,78.1h-8.8
			L484,60.4h25.1l-41.9,105.9c-2.5,6.1-5.5,11.4-9,15.8c-3.5,4.4-7.6,7.7-12.3,10C441.2,194.3,435.9,195.4,429.9,195.4z"/>
	</g>
	<g>
		<path fill="#FFFFFF" d="M208.8,41.5c-7.7-11.2-18.4-18.1-32.6-18.9c8.3-1.8,16.3-1,23.8,2.9c2.7,1.4,5.4,3,7.7,4.9
			c2,1.6,3.5,1.6,5.6,0.4c11-5.8,22.7-8.9,35.2-8.2c1.4,0.1,2.9,0.2,4.7,0.4c-8,2.4-15.9,4.2-23.1,7.2
			C222.9,33.1,216.3,37.4,208.8,41.5z"/>
		<path fill="#FFFFFF" d="M170.4,16.5c-4.2-6-10-9.8-17.7-10.2c4.5-1,8.8-0.5,12.9,1.6c1.5,0.7,2.9,1.6,4.2,2.7
			c1.1,0.9,1.9,0.9,3.1,0.2c6-3.2,12.3-4.8,19.1-4.5c0.8,0,1.6,0.1,2.5,0.2c-4.4,1.3-8.6,2.3-12.5,3.9
			C178.1,12,174.5,14.3,170.4,16.5z"/>
	</g>
</g>
</svg>
