<?xml version="1.0" encoding="utf-8"?>
<!-- Generator: Adobe Illustrator 26.1.0, SVG Export Plug-In . SVG Version: 6.00 Build 0)  -->
<svg version="1.1" id="Layer_1" xmlns="http://www.w3.org/2000/svg" xmlns:xlink="http://www.w3.org/1999/xlink" x="0px" y="0px"
	 viewBox="0 0 464 464" style="enable-background:new 0 0 464 464;" xml:space="preserve">
<style type="text/css">
	.st0{fill:#44D813;}
	.st1{fill:#FF6728;}
	.st2{fill:#3EDBFF;}
	.st3{fill:#490599;}
	.st4{fill:#1C2870;}
</style>
<g>
	<g>
		<g>
			<g>
				<path class="st0" d="M41.3,282.4v169h126.8V266.3H57.4C48.5,266.3,41.3,273.5,41.3,282.4z"/>
			</g>
		</g>
		<g>
			<g>
				<path class="st1" d="M278.8,191h-94.6c-8.9,0-16.1,7.2-16.1,16.1v244.3h126.8V207.1C294.9,198.2,287.7,191,278.8,191z"/>
			</g>
		</g>
		<g>
			<g>
				<path class="st2" d="M405.6,324.6H294.9v126.8h126.8V340.7C421.7,331.8,414.5,324.6,405.6,324.6z"/>
			</g>
		</g>
		<g>
			<g>
				<polygon class="st1" points="252.5,52.2 231.5,9.6 210.5,52.2 163.5,59 197.5,92.1 189.5,138.9 231.5,116.8 273.5,138.9 
					265.5,92.1 299.5,59 				"/>
			</g>
		</g>
		<g>
			<g>
				<g>
					<path class="st3" d="M452.4,442.8H10.6c-4.7,0-8.6,3.8-8.6,8.6s3.8,8.6,8.6,8.6h441.8c4.7,0,8.6-3.8,8.6-8.6
						S457.2,442.8,452.4,442.8z"/>
				</g>
			</g>
		</g>
	</g>
	<g>
		<path class="st4" d="M452.4,442.8h-22.1V340.7c0-13.6-11.1-24.7-24.7-24.7H303.5V207.1c0-13.6-11.1-24.7-24.7-24.7h-94.6
			c-13.6,0-24.7,11.1-24.7,24.7v50.6H57.4c-13.6,0-24.7,11.1-24.7,24.7v15.7c0,4.7,3.8,8.6,8.6,8.6s8.6-3.8,8.6-8.6v-15.7
			c0-4.1,3.4-7.5,7.5-7.5h102.1v167.9H49.9v-38.8c0-4.7-3.8-8.6-8.6-8.6s-8.6,3.8-8.6,8.6v38.8H10.6c-4.7,0-8.6,3.8-8.6,8.6
			s3.8,8.6,8.6,8.6h30.7h126.8h126.8h126.8h30.7c4.7,0,8.6-3.8,8.6-8.6S457.2,442.8,452.4,442.8z M286.3,324.6v118.2H176.7V266.3
			v-59.2c0-4.1,3.4-7.5,7.5-7.5h94.6c4.1,0,7.5,3.4,7.5,7.5V324.6z M413.1,442.8H303.5V333.2h102.1c4.1,0,7.5,3.4,7.5,7.5V442.8z"/>
		<path class="st4" d="M41.3,340.2c-4.7,0-8.6,3.8-8.6,8.6v7c0,4.7,3.8,8.6,8.6,8.6s8.6-3.8,8.6-8.6v-7
			C49.9,344,46,340.2,41.3,340.2z"/>
		<path class="st4" d="M300.7,50.5l-42.5-6.2l-19-38.5c-1.4-2.9-4.4-4.8-7.7-4.8c-3.3,0-6.3,1.9-7.7,4.8l-19,38.5l-42.5,6.2
			c-3.2,0.5-5.9,2.7-6.9,5.8c-1,3.1-0.2,6.5,2.2,8.8l30.8,30l-7.3,42.3c-0.6,3.2,0.8,6.5,3.4,8.4c2.7,1.9,6.2,2.2,9,0.7l38-20l38,20
			c1.3,0.7,2.6,1,4,1c1.8,0,3.6-0.6,5.1-1.6c2.6-1.9,4-5.2,3.4-8.4l-7.3-42.3l30.8-30c2.3-2.3,3.2-5.7,2.2-8.8
			C306.6,53.2,303.9,50.9,300.7,50.5z M259.5,86c-2,2-2.9,4.8-2.5,7.6l5.1,29.6l-26.6-14c-2.5-1.3-5.5-1.3-8,0l-26.6,14l5.1-29.6
			c0.5-2.8-0.4-5.6-2.5-7.6L182,65l29.7-4.3c2.8-0.4,5.2-2.2,6.5-4.7l13.3-27l13.3,27c1.3,2.5,3.7,4.3,6.5,4.7L281,65L259.5,86z"/>
	</g>
</g>
</svg>
