<?xml version="1.0" encoding="utf-8"?>
<!-- Generator: Adobe Illustrator 26.1.0, SVG Export Plug-In . SVG Version: 6.00 Build 0)  -->
<svg version="1.1" id="Layer_1" xmlns="http://www.w3.org/2000/svg" xmlns:xlink="http://www.w3.org/1999/xlink" x="0px" y="0px"
	 viewBox="0 0 504.1 504.1" style="enable-background:new 0 0 504.1 504.1;" xml:space="preserve">
<style type="text/css">
	.st0{fill:#FF1F3E;}
	.st1{fill:#FF6728;}
	.st2{fill:#FFF4F4;}
	.st3{fill:#17669F;}
	.st4{fill:#000053;}
</style>
<g>
	<g>
		<polygon class="st0" points="490.4,213.1 490.4,63.8 377.5,138.4 		"/>
		<polygon class="st1" points="414,242.6 74,242.6 74,12.2 209.9,12.2 255.1,42.6 414,42.6 		"/>
		<rect x="12.8" y="50.6" class="st0" width="61.2" height="78.7"/>
		<rect x="207.3" y="98.6" class="st2" width="148.2" height="82.6"/>
		<rect x="185.4" y="242.6" class="st3" width="117.3" height="52.6"/>
	</g>
	<g>
		<path class="st4" d="M495.7,53.9c-3.9-1.9-8.5-1.7-12.1,0.7l-58,38.4V42.6c0-6.2-5.2-11.2-11.7-11.2H258.7L216.6,3
			c-2-1.3-4.3-2-6.7-2h-33.6c-6.5,0-11.7,5-11.7,11.2s5.2,11.2,11.7,11.2h29.9l42.1,28.4c2,1.3,4.3,2,6.7,2h147.2v60.6c0,0,0,0,0,0
			v117H85.7V12.2C85.7,6,80.4,1,73.9,1S62.2,6,62.2,12.2v27.2H12.7C6.2,39.4,1,44.4,1,50.6v90c0,6.2,5.2,11.2,11.7,11.2h25.8
			c6.5,0,11.7-5,11.7-11.2c0-6.2-5.2-11.2-11.7-11.2H24.4V61.8h37.8v180.8c0,6.2,5.2,11.2,11.7,11.2h99.6v41.4
			c0,6.2,5.2,11.2,11.7,11.2h4.9l-69,181.6c-2.2,5.8,0.9,12.2,7,14.4c1.3,0.5,2.7,0.7,4,0.7c4.8,0,9.3-2.8,11-7.4L215,306.4h57.8
			l54.9,144.4c1.7,4.6,6.2,7.4,11,7.4c1.3,0,2.7-0.2,4-0.7c6.1-2.1,9.2-8.5,7-14.4l-52-136.7h4.9c6.5,0,11.7-5,11.7-11.2v-21.9
			c0-6.2-5.2-11.2-11.7-11.2c-6.5,0-11.7,5-11.7,11.2V284H197v-30.2h216.9c6.5,0,11.7-5,11.7-11.2V120.2l53-35v106.6l-19.8-13.1
			c-5.3-3.5-12.6-2.2-16.3,2.8c-3.7,5.1-2.3,12.1,3,15.6l38.2,25.3c2,1.3,4.3,2,6.7,2c1.9,0,3.7-0.4,5.4-1.3
			c3.9-1.9,6.3-5.8,6.3-9.9V63.8C502,59.6,499.6,55.8,495.7,53.9z"/>
		<path class="st4" d="M124.4,23.4h7.7c6.5,0,11.7-5,11.7-11.2S138.6,1,132.1,1h-7.7c-6.5,0-11.7,5-11.7,11.2S117.9,23.4,124.4,23.4
			z"/>
		<path class="st4" d="M213.3,171.1c-6.5,0-11.7,5-11.7,11.2c0,6.2,5.2,11.2,11.7,11.2h142c6.5,0,11.7-5,11.7-11.2v-91
			c0-6.2-5.2-11.2-11.7-11.2h-142c-6.5,0-11.7,5-11.7,11.2s5.2,11.2,11.7,11.2h130.3v68.6H213.3z"/>
		<path class="st4" d="M243.9,321.9c-6.5,0-11.7,5-11.7,11.2v158.7c0,6.2,5.2,11.2,11.7,11.2s11.7-5,11.7-11.2V333.1
			C255.6,326.9,250.4,321.9,243.9,321.9z"/>
		<path class="st4" d="M363.6,479.7c-2.2-5.8-8.9-8.8-15-6.7c-6.1,2.1-9.2,8.5-7,14.4l3.1,8.3c1.7,4.6,6.2,7.4,11,7.4
			c1.3,0,2.7-0.2,4-0.7c6.1-2.1,9.2-8.5,7-14.4L363.6,479.7z"/>
	</g>
</g>
</svg>
