<?xml version="1.0" encoding="utf-8"?>
<!-- Generator: Adobe Illustrator 28.0.0, SVG Export Plug-In . SVG Version: 6.00 Build 0)  -->
<svg version="1.1" id="Layer_1" xmlns="http://www.w3.org/2000/svg" xmlns:xlink="http://www.w3.org/1999/xlink" x="0px" y="0px"
	 viewBox="0 0 809.1 217" style="enable-background:new 0 0 809.1 217;" xml:space="preserve">
<style type="text/css">
	.st0{enable-background:new    ;}
	.st1{fill:#1BD8DC;}
	.st2{fill:#FD6728;}
	.st3{fill:#FFFFFF;}
	.st4{clip-path:url(#SVGID_00000039128284952630402720000000868110597019960964_);}
	.st5{fill:#11D8DC;}
	.st6{fill:#0097D3;}
</style>
<g id="Group_1890" transform="translate(-429 243.96)">
	<g id="Group_1887" transform="translate(376 107.792)">
		<g class="st0">
			<path class="st1" d="M105.4-298.2h23.9l47.3,99.4h-25.1l-6.9-14.3H89.8L83-198.8H57.9L105.4-298.2z M99.3-232.8h35.8l-17.9-37.4
				L99.3-232.8z"/>
			<path class="st1" d="M192-296.8h54.2c5.1,0,9.6,0.8,13.4,2.5c3.8,1.6,7,3.8,9.6,6.4c2.6,2.7,4.5,5.7,5.7,9.1
				c1.3,3.4,1.9,6.9,1.9,10.4c0,3-0.4,5.9-1.3,8.8c-0.9,2.8-2.2,5.5-4,7.9c4.6,3,8,6.7,10.1,11.1c2.2,4.4,3.3,9,3.3,13.7
				c0,3.5-0.6,7-1.9,10.4c-1.3,3.4-3.1,6.4-5.7,9c-2.5,2.6-5.6,4.7-9.4,6.3c-3.7,1.6-8.1,2.4-13,2.4h-63V-296.8z M215.7-257.5h25.6
				c4,0,7-1.1,9-3.4c2-2.2,3-4.7,3-7.4c0-2.7-1-5.2-3-7.4c-2-2.2-5-3.4-9-3.4h-25.6V-257.5z M215.7-218h34.4c4,0,7-1.1,9-3.4
				c2-2.3,3-4.8,3-7.5c0-2.8-1-5.3-3-7.6c-2-2.3-5-3.4-9-3.4h-34.4V-218z"/>
			<path class="st1" d="M303.2-296.8h23.7l60.2,68.3v-68.3h23.5v98H387l-60.2-68.3v68.3h-23.7V-296.8z"/>
		</g>
		<g class="st0">
			<path class="st2" d="M429-247.8c0-8.6,1.7-16.1,5-22.7c3.4-6.5,7.7-12,13-16.4c5.3-4.4,11.2-7.7,17.7-9.9
				c6.5-2.2,12.9-3.3,19.2-3.3c9.9,0,18.9,1.9,26.9,5.7c8,3.8,14.7,9.1,20,15.9l-17.5,15.3c-1.6-2-3.5-3.8-5.6-5.5
				c-2.1-1.7-4.5-3.2-6.9-4.5c-2.5-1.3-5.1-2.3-7.8-3c-2.7-0.7-5.4-1.1-8.1-1.1c-5.2,0-9.8,0.8-13.7,2.5c-3.9,1.7-7.2,3.9-9.8,6.6
				c-2.6,2.8-4.6,5.9-5.9,9.5c-1.3,3.5-2,7.2-2,10.9c0,3.6,0.7,7.2,2,10.8c1.3,3.5,3.3,6.7,5.9,9.5c2.6,2.8,5.9,5,9.8,6.6
				s8.5,2.5,13.7,2.5c3.5,0,6.6-0.4,9.4-1.2c2.8-0.8,5.4-1.8,7.7-3.2c2.3-1.3,4.4-2.8,6.3-4.5c1.9-1.7,3.5-3.6,5-5.5l17.5,15.3
				c-5.4,6.7-12.2,12.1-20.2,16c-8.1,4-17,6-26.8,6c-6.3,0-12.6-1.1-19.2-3.3c-6.5-2.2-12.4-5.5-17.6-9.9
				c-5.2-4.4-9.5-9.8-12.9-16.4C430.7-231.6,429-239.2,429-247.8z M474-247.7c0-3.3,1-5.9,2.9-7.9c2-2,4.6-3,8-3c3.3,0,5.9,1,7.8,3
				c2,2,2.9,4.6,2.9,7.9c0,3.3-1,5.9-2.9,7.8c-2,2-4.6,2.9-7.8,2.9c-3.4,0-6-1-8-2.9C475-241.8,474-244.4,474-247.7z"/>
			<path class="st2" d="M579.5-197.4l-37.9-99.4h24.6l23.9,66.2l24.6-66.2h15.5l24.6,66.2l23.9-66.2h24.6l-37.9,99.4h-18.9
				l-24.2-63.1l-24.1,63.1H579.5z"/>
		</g>
		<g class="st0">
			<path class="st3" d="M87.7-175.9v6H74.6v24.1h-7.3v-24.1H54.2v-6H87.7z"/>
			<path class="st3" d="M111.3-163.9v6.1H99.4v12h-7.3v-30.1h7.3v12H111.3z M116-175.9h7.2v30.1H116V-175.9z"/>
			<path class="st3" d="M156.8-151.9v6.1h-27.1v-30.1h26.8v6.1h-19.6v6h16.7v6h-16.7v6H156.8z"/>
			<path class="st3" d="M185.2-176.3h7.4l14.5,30.5h-7.7l-2.1-4.4h-16.9l-2.1,4.4h-7.7L185.2-176.3z M183.4-156.2h11l-5.5-11.5
				L183.4-156.2z"/>
			<path class="st3" d="M211.8-175.9h7.3v30.1h-7.3V-175.9z M238.4-151.9v6.1h-13.5v-6.1H238.4z"/>
			<path class="st3" d="M242.8-175.9h7.3v17.8c0,1.1,0.2,2,0.7,2.9c0.5,0.8,1.1,1.5,1.8,2c0.7,0.5,1.6,1,2.5,1.2
				c0.9,0.3,1.9,0.4,2.9,0.4c1,0,2-0.1,2.9-0.4c0.9-0.3,1.8-0.7,2.5-1.2c0.7-0.5,1.3-1.2,1.8-2c0.5-0.8,0.7-1.8,0.7-2.9v-17.8h7.3
				v17.8c0,2.2-0.4,4.2-1.3,5.8c-0.9,1.7-2,3.1-3.4,4.2c-1.4,1.1-3,2-4.9,2.5c-1.8,0.6-3.7,0.8-5.6,0.8s-3.8-0.3-5.6-0.8
				c-1.8-0.6-3.5-1.4-4.9-2.5s-2.6-2.5-3.4-4.2c-0.9-1.7-1.3-3.6-1.3-5.8V-175.9z"/>
			<path class="st3" d="M279.2-175.9h7.3l11.7,20.3l11.7-20.3h7.3v30.1h-7.3v-17.9l-10.3,17.9h-2.7l-10.3-17.9v17.9h-7.3V-175.9z"/>
			<path class="st3" d="M323.5-175.9h7.3l18.5,21v-21h7.2v30.1h-7.2l-18.5-21v21h-7.3V-175.9z"/>
			<path class="st3" d="M362.9-175.9h7.3v30.1h-7.3V-175.9z"/>
			<path class="st3" d="M377.4-175.9h5.5l-4.3,9.7h-3.7L377.4-175.9z"/>
			<path class="st3" d="M413.8-166.4c-0.7-0.6-1.5-1.1-2.5-1.6c-1-0.5-2-0.9-3.1-1.2c-1.1-0.3-2.2-0.6-3.3-0.8
				c-1.1-0.2-2.2-0.3-3.2-0.3c-1.6,0-2.9,0.2-4,0.7c-1.1,0.5-1.6,1.2-1.6,2.3c0,0.7,0.3,1.2,0.9,1.6c0.6,0.4,1.4,0.7,2.4,1
				c1,0.3,2.1,0.5,3.4,0.7c1.3,0.2,2.6,0.5,3.9,0.8s2.6,0.7,3.9,1.1c1.3,0.4,2.4,1,3.4,1.7c1,0.7,1.8,1.6,2.4,2.6s0.9,2.3,0.9,3.8
				c0,1.7-0.4,3.1-1.2,4.3c-0.8,1.2-1.8,2.1-3.2,2.9c-1.3,0.7-2.9,1.3-4.6,1.6c-1.7,0.3-3.5,0.5-5.4,0.5c-1.5,0-3.1-0.1-4.6-0.3
				c-1.5-0.2-3-0.5-4.5-0.9c-1.4-0.4-2.8-0.9-4-1.4c-1.2-0.6-2.3-1.2-3.2-1.9l3.6-6c0.7,0.7,1.6,1.3,2.7,1.8c1.1,0.5,2.2,1,3.4,1.3
				c1.2,0.4,2.5,0.6,3.7,0.8c1.3,0.2,2.5,0.3,3.6,0.3c0.8,0,1.5-0.1,2.2-0.2c0.7-0.1,1.3-0.3,1.8-0.5c0.5-0.2,0.9-0.5,1.2-0.9
				c0.3-0.4,0.4-0.8,0.4-1.2c0-0.7-0.3-1.2-0.9-1.7c-0.6-0.4-1.4-0.8-2.4-1.1c-1-0.3-2.1-0.6-3.4-0.8c-1.3-0.2-2.6-0.5-3.9-0.8
				c-1.3-0.3-2.6-0.7-3.9-1.1c-1.3-0.4-2.4-1-3.4-1.7c-1-0.7-1.8-1.6-2.4-2.6c-0.6-1-0.9-2.3-0.9-3.8c0-1.7,0.4-3.1,1.1-4.2
				c0.7-1.2,1.7-2.1,2.9-2.8c1.2-0.7,2.6-1.3,4.2-1.6c1.6-0.3,3.3-0.5,5-0.5c1.4,0,2.9,0.1,4.4,0.3c1.5,0.2,2.9,0.5,4.3,0.9
				s2.7,0.9,3.9,1.4c1.2,0.5,2.3,1.2,3.3,1.8L413.8-166.4z"/>
			<path class="st3" d="M459.5-166.4c-0.7-0.6-1.5-1.1-2.5-1.6c-1-0.5-2-0.9-3.1-1.2c-1.1-0.3-2.2-0.6-3.3-0.8
				c-1.1-0.2-2.2-0.3-3.2-0.3c-1.6,0-2.9,0.2-4,0.7c-1.1,0.5-1.6,1.2-1.6,2.3c0,0.7,0.3,1.2,0.9,1.6c0.6,0.4,1.4,0.7,2.4,1
				c1,0.3,2.1,0.5,3.4,0.7c1.3,0.2,2.6,0.5,3.9,0.8s2.6,0.7,3.9,1.1c1.3,0.4,2.4,1,3.4,1.7c1,0.7,1.8,1.6,2.4,2.6
				c0.6,1,0.9,2.3,0.9,3.8c0,1.7-0.4,3.1-1.2,4.3c-0.8,1.2-1.8,2.1-3.2,2.9c-1.3,0.7-2.9,1.3-4.6,1.6c-1.7,0.3-3.5,0.5-5.4,0.5
				c-1.5,0-3.1-0.1-4.6-0.3c-1.5-0.2-3-0.5-4.5-0.9c-1.4-0.4-2.8-0.9-4-1.4c-1.2-0.6-2.3-1.2-3.2-1.9l3.6-6c0.7,0.7,1.6,1.3,2.7,1.8
				c1.1,0.5,2.2,1,3.4,1.3c1.2,0.4,2.5,0.6,3.7,0.8c1.3,0.2,2.5,0.3,3.6,0.3c0.8,0,1.5-0.1,2.2-0.2c0.7-0.1,1.3-0.3,1.8-0.5
				c0.5-0.2,0.9-0.5,1.2-0.9c0.3-0.4,0.4-0.8,0.4-1.2c0-0.7-0.3-1.2-0.9-1.7c-0.6-0.4-1.4-0.8-2.4-1.1c-1-0.3-2.1-0.6-3.4-0.8
				c-1.3-0.2-2.6-0.5-3.9-0.8c-1.3-0.3-2.6-0.7-3.9-1.1c-1.3-0.4-2.4-1-3.4-1.7c-1-0.7-1.8-1.6-2.4-2.6c-0.6-1-0.9-2.3-0.9-3.8
				c0-1.7,0.4-3.1,1.1-4.2c0.7-1.2,1.7-2.1,2.9-2.8c1.2-0.7,2.6-1.3,4.2-1.6c1.6-0.3,3.3-0.5,5-0.5c1.4,0,2.9,0.1,4.4,0.3
				c1.5,0.2,2.9,0.5,4.3,0.9s2.7,0.9,3.9,1.4c1.2,0.5,2.3,1.2,3.3,1.8L459.5-166.4z"/>
			<path class="st3" d="M468.8-175.9h7.3v30.1h-7.3V-175.9z"/>
			<path class="st3" d="M499.7-175.9c2.6,0,4.8,0.5,6.7,1.3c1.9,0.9,3.5,2,4.8,3.4c1.3,1.4,2.2,3,2.9,4.8c0.6,1.8,1,3.6,1,5.5
				s-0.3,3.7-1,5.5c-0.6,1.8-1.6,3.4-2.9,4.8c-1.3,1.4-2.9,2.6-4.8,3.4s-4.2,1.3-6.7,1.3h-17.2v-30.1H499.7z M489.7-151.9h9.8
				c1.3,0,2.5-0.3,3.5-0.8c1-0.5,1.8-1.2,2.5-2c0.7-0.8,1.2-1.8,1.5-2.9c0.3-1.1,0.5-2.2,0.5-3.3s-0.2-2.2-0.5-3.3
				c-0.3-1.1-0.8-2.1-1.5-2.9c-0.7-0.8-1.5-1.5-2.5-2c-1-0.5-2.2-0.8-3.5-0.8h-9.8V-151.9z"/>
			<path class="st3" d="M547.8-151.9v6.1h-27.1v-30.1h26.8v6.1h-19.6v6h16.7v6h-16.7v6H547.8z"/>
			<path class="st3" d="M553-175.9h7.3v12.4l13.3-12.4h9.2l-14.1,13.5l16,16.6h-9.5l-11.4-12.1l-3.6,3.5v8.6H553V-175.9z"/>
			<path class="st3" d="M589.2-175.9h7.3v30.1h-7.3V-175.9z"/>
			<path class="st3" d="M602.2-160.8c0-2.6,0.5-5,1.5-7c1-2,2.4-3.7,4-5s3.4-2.4,5.4-3c2-0.7,4-1,5.9-1c3,0,5.8,0.6,8.3,1.7
				s4.5,2.8,6.1,4.9l-5.4,4.7c-0.5-0.6-1.1-1.2-1.7-1.7c-0.7-0.5-1.4-1-2.1-1.4s-1.6-0.7-2.4-0.9c-0.8-0.2-1.7-0.3-2.5-0.3
				c-1.6,0-3,0.3-4.2,0.8c-1.2,0.5-2.2,1.2-3,2c-0.8,0.8-1.4,1.8-1.8,2.9c-0.4,1.1-0.6,2.2-0.6,3.4c0,1.1,0.2,2.2,0.6,3.3
				c0.4,1.1,1,2.1,1.8,2.9c0.8,0.8,1.8,1.5,3,2s2.6,0.8,4.2,0.8c1.1,0,2-0.1,2.9-0.4c0.9-0.2,1.6-0.6,2.4-1c0.7-0.4,1.4-0.9,1.9-1.4
				c0.6-0.5,1.1-1.1,1.5-1.7l5.4,4.7c-1.7,2.1-3.7,3.7-6.2,4.9c-2.5,1.2-5.2,1.8-8.2,1.8c-1.9,0-3.9-0.3-5.9-1c-2-0.7-3.8-1.7-5.4-3
				s-2.9-3-4-5C602.7-155.9,602.2-158.2,602.2-160.8z M616-160.8c0-1,0.3-1.8,0.9-2.4c0.6-0.6,1.4-0.9,2.5-0.9c1,0,1.8,0.3,2.4,0.9
				c0.6,0.6,0.9,1.4,0.9,2.4c0,1-0.3,1.8-0.9,2.4c-0.6,0.6-1.4,0.9-2.4,0.9c-1,0-1.8-0.3-2.5-0.9C616.3-159,616-159.8,616-160.8z"/>
			<path class="st3" d="M638.5-175.9h7.3v12.4l13.3-12.4h9.2l-14.1,13.5l16,16.6h-9.5l-11.4-12.1l-3.6,3.5v8.6h-7.3V-175.9z"/>
		</g>
	</g>
	<g id="Group_1888" transform="translate(1103.772 -243.96)">
		<g>
			<defs>
				<rect id="SVGID_1_" x="0" y="0" width="134.3" height="132.4"/>
			</defs>
			<clipPath id="SVGID_00000174577844258208804370000012138819321160564099_">
				<use xlink:href="#SVGID_1_"  style="overflow:visible;"/>
			</clipPath>
			
				<g id="Group_1481" transform="translate(0.001)" style="clip-path:url(#SVGID_00000174577844258208804370000012138819321160564099_);">
				<path id="Path_1600" class="st5" d="M53.4,48.1l30.1,35l9-38.9L53.4,48.1 M51,50.7L40.9,89.5L80,84.8L51,50.7 M92.2,40.9
					L72.5,11.7L53.1,44.9L92.2,40.9 M12,63.8L37.8,88l10.1-38.5L12,63.8 M61.7,121.6l18.7-33l-38.5,3.8L61.7,121.6 M86.6,83.2
					l35.1-13.7L96.6,45.9L86.6,83.2 M49.8,44.1l19.2-33l-40.5,8.5L49.8,44.1 M84.1,89.2l-19.1,33l40.4-8.6L84.1,89.2 M26.2,21.7
					L11.7,60.6l35.5-14.5L26.2,21.7 M107.9,111.7L121,75.4l-1.3-1.6L87.5,87.1L107.9,111.7 M38.4,93.4l-17.9,15.4l34.8,11.8l0.8-1.4
					L38.4,93.4 M36.3,91l-23-21.5l-1.4,1l6.5,35.9L36.3,91 M113.2,24.4L78.8,12.6c3.8,8,8.6,15.5,14.2,22.4c1.1,1.4,5.2,2.3,6.5,1.3
					C104,33.2,108,29.1,113.2,24.4 M115.7,27.1c-6.1,5.1-11,8.9-15.6,13.1c-0.7,0.7-0.6,3.6,0.2,4.3c6.5,6.1,13.2,11.8,21.6,19.2
					L115.7,27.1 M100.4,118L68,124.8C84.1,135.3,81.5,135.7,100.4,118 M66,8.4c-14-10.3-18.4-9.4-32,6.7L66,8.4 M21.5,25.3
					C2.3,40.2,0.9,44.2,10,56.2L21.5,25.3 M113,107.7C133.2,89.5,133,93.8,124.4,78c-3,7.2-5.9,14.2-8.7,21.2
					C114.9,101.4,114.3,103.8,113,107.7 M77.8,8.8c5.5,1.9,10.1,3.6,14.7,5.1c4.6,1.6,9.2,3,13.8,4.5c-3-4.3-6.4-7.4-9.9-10.5
					C88.2,0.7,87.9,0.7,77.8,8.8 M27.6,114.5l-0.6,1.1c3.6,3.2,7.2,6.5,10.8,9.7c8,7.1,9,7.1,18.3-1.1L27.6,114.5 M11.8,97.8
					l1.7-0.6L8.4,69.4C5,73.5-2.2,75.7,1.9,82.5C5,87.7,8.5,92.7,11.8,97.8 M125.6,63.1l2.9,0.9c1.5-3.9,5.2-8.7,4.1-11.7
					c-2.2-6.2-7-11.5-10.7-17.1l-1.5,0.7L125.6,63.1 M2,51.1c-0.7,7.1-1.3,13.1-2,20.1C7.9,63.4,8.1,61.5,2,51.1 M132.2,81.2l2.1-19
					C126.9,68.2,126.4,71.2,132.2,81.2 M71.6,132.4c-6.3-6-12.4-7.5-18.1,0H71.6z M81,0.9L60,0C72.5,7.7,73,7.7,81,0.9"/>
				<path id="Path_1601" class="st6" d="M53.4,48.1l39.1-3.9l-9,38.9L53.4,48.1"/>
				<path id="Path_1602" class="st2" d="M51,50.7l29,34.1l-39.1,4.7L51,50.7"/>
				<path id="Path_1603" class="st5" d="M92.2,40.9l-39.1,4l19.4-33.2L92.2,40.9"/>
				<path id="Path_1604" class="st5" d="M12,63.8l35.9-14.3L37.8,88L12,63.8"/>
				<path id="Path_1605" class="st5" d="M61.7,121.6L41.8,92.4l38.5-3.8L61.7,121.6"/>
				<path id="Path_1606" class="st5" d="M86.6,83.2c3.5-13.2,6.5-24.5,10-37.3l25.2,23.6L86.6,83.2"/>
				<path id="Path_1607" class="st5" d="M49.8,44.1L28.6,19.6l40.5-8.5L49.8,44.1"/>
				<path id="Path_1608" class="st5" d="M84.1,89.2l21.2,24.5L65,122.2L84.1,89.2"/>
				<path id="Path_1609" class="st5" d="M26.2,21.7l21,24.5L11.7,60.6L26.2,21.7"/>
				<path id="Path_1610" class="st5" d="M107.9,111.7L87.5,87.1l32.2-13.3l1.3,1.6L107.9,111.7"/>
				<path id="Path_1611" class="st5" d="M38.4,93.4l17.7,25.9l-0.8,1.4l-34.8-11.8L38.4,93.4"/>
				<path id="Path_1612" class="st5" d="M36.3,91l-17.9,15.4c-2.4-13.1-4.5-24.5-6.5-35.9l1.4-1L36.3,91"/>
				<path id="Path_1613" class="st5" d="M113.2,24.4c-5.3,4.7-9.2,8.8-13.7,12c-1.3,0.9-5.4,0.1-6.5-1.3
					c-5.6-6.9-10.4-14.4-14.2-22.4L113.2,24.4"/>
				<path id="Path_1614" class="st5" d="M115.7,27.1c2.1,12.6,4,23.5,6.2,36.7c-8.4-7.4-15.1-13.2-21.6-19.2
					c-0.8-0.7-0.9-3.7-0.2-4.3C104.7,36.1,109.6,32.2,115.7,27.1"/>
				<path id="Path_1615" class="st5" d="M100.4,118c-18.9,17.7-16.3,17.3-32.4,6.8L100.4,118"/>
				<path id="Path_1616" class="st5" d="M66,8.4l-32,6.7C47.6-0.9,52-1.9,66,8.4"/>
				<path id="Path_1617" class="st5" d="M21.5,25.3L10,56.2C0.9,44.2,2.3,40.2,21.5,25.3"/>
				<path id="Path_1618" class="st5" d="M113,107.7c1.2-3.9,1.8-6.3,2.7-8.5c2.8-7,5.7-14,8.7-21.2C133,93.8,133.2,89.5,113,107.7"
					/>
				<path id="Path_1619" class="st5" d="M77.8,8.8C87.9,0.7,88.2,0.7,96.4,8c3.5,3.1,7,6.2,9.9,10.5c-4.6-1.5-9.2-3-13.8-4.5
					C87.9,12.4,83.3,10.8,77.8,8.8"/>
				<path id="Path_1620" class="st5" d="M27.6,114.5l28.5,9.8c-9.3,8.1-10.3,8.1-18.3,1.1c-3.6-3.2-7.2-6.5-10.8-9.7L27.6,114.5"/>
				<path id="Path_1621" class="st5" d="M11.8,97.8C8.5,92.7,5,87.7,1.9,82.5c-4.1-6.8,3.1-9,6.5-13.1c1.7,9.3,3.4,18.6,5.1,27.8
					L11.8,97.8"/>
				<path id="Path_1622" class="st5" d="M125.6,63.1c-1.7-9.1-3.5-18.2-5.2-27.2l1.5-0.7c3.7,5.6,8.5,10.9,10.7,17.1
					c1.1,3-2.6,7.7-4.1,11.7L125.6,63.1"/>
				<path id="Path_1623" class="st2" d="M2,51.1c6.1,10.5,5.9,12.3-2,20.1C0.7,64.2,1.3,58.2,2,51.1"/>
				<path id="Path_1624" class="st2" d="M132.2,81.2c-5.8-10.1-5.3-13.1,2.1-19C133.5,69,132.9,75.1,132.2,81.2"/>
				<path id="Path_1625" class="st2" d="M71.6,132.4H53.5C59.2,124.9,65.2,126.4,71.6,132.4"/>
				<path id="Path_1626" class="st2" d="M81,0.9C73,7.7,72.5,7.7,60,0L81,0.9"/>
			</g>
		</g>
	</g>
</g>
</svg>
