<svg id="Vector_Smart_Object" data-name="Vector Smart Object" xmlns="http://www.w3.org/2000/svg" xmlns:xlink="http://www.w3.org/1999/xlink" width="158.08" height="158.08" viewBox="0 0 158.08 158.08">
  <defs>
    <clipPath id="clip-path">
      <rect id="Rectangle_1" data-name="Rectangle 1" width="158.08" height="158.08" fill="none"/>
    </clipPath>
  </defs>
  <g id="Group_2" data-name="Group 2">
    <g id="Group_1" data-name="Group 1" clip-path="url(#clip-path)">
      <path id="Path_1" data-name="Path 1" d="M79.04,156.027A76.987,76.987,0,1,1,156.027,79.04,77.074,77.074,0,0,1,79.04,156.027" fill="#fff"/>
      <path id="Path_2" data-name="Path 2" d="M96.4,115.314h15.439a9.982,9.982,0,0,1,9.982,9.983v18.571" fill="none" stroke="#fd6729" stroke-width="4.106"/>
      <path id="Path_3" data-name="Path 3" d="M50.081,149V125.3a9.972,9.972,0,0,1,4.4-8.277" fill="none" stroke="#fd6729" stroke-width="4.106"/>
      <path id="Path_4" data-name="Path 4" d="M35.473,64.354a12.624,12.624,0,0,0-4.751,20.79A19.844,19.844,0,0,0,49.47,111.6a20.123,20.123,0,0,0,2.843-.224c0,.015,0,.032,0,.048a7.829,7.829,0,0,0,1.862,5.089A7.468,7.468,0,0,0,66.2,115.7a10.93,10.93,0,0,0,8.518,4.106" fill="none" stroke="#fd6729" stroke-width="4.106"/>
      <path id="Path_5" data-name="Path 5" d="M104.969,115.329a10.815,10.815,0,0,0,5.709-1.624c3.2-1.981,4.752-4.881,4.752-8.986a11.4,11.4,0,0,0-2.58-7.252,27.009,27.009,0,0,0,3.843-13.828,27.367,27.367,0,0,0-5.768-16.7" fill="none" stroke="#fd6729" stroke-width="4.106"/>
      <path id="Path_6" data-name="Path 6" d="M95.581,100.707v18.258a11.574,11.574,0,1,1-23.147,0V104.337" fill="none" stroke="#fd6729" stroke-width="4.106"/>
      <path id="Path_7" data-name="Path 7" d="M43.76,74.36l1.563,10.3c.44,2.9,5.4,4.566,8.274,4.432" fill="none" stroke="#fd6729" stroke-width="4.106"/>
      <path id="Path_8" data-name="Path 8" d="M55.336,46.71a30.023,30.023,0,0,1,55.6,15.72V75.086a30.021,30.021,0,1,1-60.041,0V71.669" fill="none" stroke="#fd6729" stroke-width="4.106"/>
      <path id="Path_9" data-name="Path 9" d="M86.479,33.23V38.76a29.737,29.737,0,0,0,24.457,29.257V62.485A29.734,29.734,0,0,0,86.479,33.23Z" fill="none" stroke="#fd6729" stroke-width="4.106"/>
      <path id="Path_10" data-name="Path 10" d="M57.938,54.291c-.2-7.374-5.943-13.25-12.934-13.16-7.055.086-12.7,6.214-12.6,13.685.074,5.911,6.781,17.464,25.081,17.236A30.5,30.5,0,0,0,87.149,45.909" fill="none" stroke="#fd6729" stroke-width="4.106"/>
      <line id="Line_1" data-name="Line 1" x1="5.901" transform="translate(66.814 78.452)" fill="none" stroke="#fd6729" stroke-width="4.106"/>
      <line id="Line_2" data-name="Line 2" x1="5.901" transform="translate(90.472 78.452)" fill="none" stroke="#fd6729" stroke-width="4.106"/>
      <path id="Path_11" data-name="Path 11" d="M86.884,89.627a7.834,7.834,0,0,1-11.077,0" fill="none" stroke="#fd6729" stroke-width="4.106"/>
      <circle id="Ellipse_1" data-name="Ellipse 1" cx="76.987" cy="76.987" r="76.987" transform="translate(2.053 2.053)" fill="none" stroke="#36e9f7" stroke-width="4.106"/>
    </g>
  </g>
</svg>
