<?xml version="1.0" encoding="utf-8"?>
<!-- Generator: Adobe Illustrator 26.1.0, SVG Export Plug-In . SVG Version: 6.00 Build 0)  -->
<svg version="1.1" id="Layer_1" xmlns="http://www.w3.org/2000/svg" xmlns:xlink="http://www.w3.org/1999/xlink" x="0px" y="0px"
	 viewBox="0 0 512 512" style="enable-background:new 0 0 512 512;" xml:space="preserve">
<style type="text/css">
	.st0{fill:#FA40FF;}
	.st1{fill:#FFFFFF;}
	.st2{fill:#05BF00;}
	.st3{fill:none;stroke:#000000;stroke-width:3.5;stroke-linecap:round;stroke-linejoin:round;stroke-miterlimit:10;}
	.st4{fill:#FFDE46;}
	.st5{fill:#1C2870;}
</style>
<g>
	<g>
		<g>
			<g>
				<path class="st0" d="M500.9,141.2c-1.3,22.6-10.1,43.1-23.8,59.1c-11.2,13-25.5,23-41.7,28.6c-8.6,3-17.8,4.8-27.2,5
					c-3.4,0.1-6.8,0.1-10.2-0.3c-1.9-0.2-3.8-0.2-5.7-0.2c-25.4,0-49.1,13-61.9,36c-13.5,24.1-12.4,54.2,3.2,76.9
					c10.7,15.8,17.2,34.9,17.4,55.6c0,0.5,0,0.9,0,1.3c0,22.6-7.3,43.4-19.7,60.1c-18.6,25.1-48.7,40.7-82.2,38.6
					c-28.3-1.8-53.5-16.7-69.8-38.8c-11.6-15.5-18.8-34.6-19.7-55.1c-0.1-2.1-0.1-4.3,0-6.4c0.3-21,6.9-40.3,18-56.1
					c8.3-11.9,12.4-26,12.4-40.2c0-12.5-3.2-25.1-9.5-36.3c-13.6-24.4-39.9-37.7-67.1-35.4c-3.4,0.3-7,0.4-10.6,0.3
					c-9.5-0.3-18.6-2-27.2-5c-16.2-5.6-30.5-15.6-41.7-28.6c-13.7-16-22.5-36.5-23.8-59.1c-3.4-57.4,40.7-105,95.6-105
					c12.5,0,24.4,2.5,35.3,6.9c15.9,6.5,29.7,17.2,40.1,30.9c4.4,5.8,8.2,12.2,11.3,19c5.8,12.7,14.8,23.2,25.7,30.6
					c11,7.3,23.9,11.5,37.5,11.5c27.2,0,51.6-16.6,63.2-42c3.1-6.8,6.9-13.2,11.3-19c10.4-13.7,24.2-24.4,40.1-30.9
					c10.9-4.5,22.8-6.9,35.3-6.9C460.2,36.2,504.3,83.8,500.9,141.2z"/>
				<path class="st1" d="M255.1,348.7c29.1,0,52.8,24.5,52.8,54.6c0,30.1-23.7,54.6-52.8,54.6c-29.1,0-52.8-24.5-52.8-54.6
					C202.3,373.2,226,348.7,255.1,348.7z"/>
				<path class="st1" d="M105.4,80.5c29.1,0,52.8,24.5,52.8,54.6c0,30.1-23.7,54.6-52.8,54.6s-52.8-24.5-52.8-54.6
					C52.6,105,76.3,80.5,105.4,80.5z"/>
				<path class="st1" d="M405.3,80.5c29.1,0,52.8,24.5,52.8,54.6c0,30.1-23.7,54.6-52.8,54.6c-29.1,0-52.8-24.5-52.8-54.6
					C352.5,105,376.2,80.5,405.3,80.5z"/>
			</g>
			<ellipse class="st2" cx="255.4" cy="224.9" rx="48.6" ry="50.2"/>
		</g>
		<path class="st3" d="M296.6,62.3"/>
		<g>
			<path class="st4" d="M214.2,62.3"/>
		</g>
		<path class="st3" d="M79,283.8"/>
		<path class="st3" d="M394.7,362.4"/>
		<path class="st3" d="M433.9,271.9"/>
		<path class="st3" d="M394.7,362.4"/>
		<path class="st3" d="M433.9,271.9"/>
	</g>
	<g>
		<g>
			<g>
				<g>
					<g>
						<path class="st5" d="M255,511c-2.2,0-4.3-0.1-6.5-0.2c-29.9-1.9-57.7-17.3-76.1-42.2c-13-17.4-20.4-38.2-21.4-60.1
							c-0.1-2-0.2-4.6,0-7.2c0.3-21.9,7.1-43,19.6-60.9c7.1-10.1,10.8-22.2,10.8-35c0-11.1-2.9-22.1-8.3-31.8
							c-11.8-21.2-34.5-33.1-59-31c-3.9,0.3-7.8,0.4-11.6,0.3c-9.9-0.3-19.9-2.1-29.6-5.5c-17.3-6-33.1-16.7-45.4-31.1
							c-13.4-15.7-22.1-34.7-25-55.2c-0.7-4.8,2.5-9.4,7.2-10.1c4.7-0.7,9.1,2.6,9.8,7.5c2.5,17.1,9.7,33,20.9,46.1
							c10.3,12,23.5,21,38,26c8.1,2.8,16.4,4.3,24.7,4.6c3.2,0.1,6.4,0.1,9.6-0.2c31.2-2.7,60.1,12.6,75.3,39.8
							c6.9,12.4,10.6,26.5,10.6,40.7c0,16.5-4.9,32.2-14,45.4c-10.4,14.9-16.1,32.6-16.4,51.1c-0.1,2.1,0,4,0,5.8
							c0.8,18.2,7,35.6,17.9,50.1c15.5,20.9,38.6,33.7,63.6,35.3c29.1,1.9,57.1-11.3,74.8-35.2c11.8-15.7,18-34.6,18-54.7
							c0-0.3,0-0.9,0-1.2c-0.2-18.2-5.7-35.7-15.9-50.6c-17.4-25.4-18.8-59.3-3.6-86.5c14.1-25.3,40.1-40.4,69.4-40.4
							c2.1,0,4.3,0.1,6.4,0.2c2.9,0.3,5.9,0.3,9.3,0.2c8.3-0.2,16.7-1.8,24.8-4.6c14.5-5,27.7-14,38-26.1
							c13-15.2,20.5-33.8,21.7-53.7c1.5-25.1-6.9-49-23.5-67.3c-16.7-18.3-39.2-28.3-63.5-28.3c-11.1,0-21.9,2.1-32.1,6.3
							c-14.3,5.8-27,15.6-36.5,28.1c-4.1,5.4-7.5,11.2-10.3,17.3c-3.4,7.6-7.9,14.5-13.3,20.6c-3.2,3.6-8.6,3.9-12.1,0.6
							c-3.5-3.3-3.7-8.9-0.5-12.5c4.2-4.8,7.7-10.2,10.4-16.1c3.3-7.3,7.5-14.3,12.4-20.7c11.4-15,26.6-26.7,43.7-33.7
							c12.3-5,25.2-7.6,38.4-7.6c28.7,0,56.4,12.4,76,33.9c19.9,21.9,29.9,50.4,28.1,80.5c-1.4,23.9-10.4,46.2-25.9,64.4
							c-12.4,14.4-28.1,25.2-45.4,31.1c-9.7,3.4-19.7,5.2-29.7,5.5c-4,0.1-7.7,0-11.2-0.3c-1.6-0.1-3.3-0.2-5-0.2
							c-23.1,0-43.5,11.8-54.5,31.5c-11.8,21.2-10.8,47.6,2.8,67.4c12.1,17.8,18.7,38.6,19,60.3c0,0.6,0.1,1.2,0.1,1.8
							c0,24-7.4,46.6-21.5,65.5C318.2,495.5,287.5,511,255,511z"/>
					</g>
				</g>
				<g>
					<g>
						<path class="st5" d="M255.4,143.9c-14.9,0-29.5-4.4-42.1-12.9c-12.5-8.4-22.5-20.2-28.9-34.2c-2.8-6.1-6.3-11.9-10.3-17.3
							c-9.5-12.6-22.2-22.3-36.5-28.1c-7.9-3.3-16.2-5.3-24.7-6c-4.7-0.4-8.2-4.7-7.9-9.6c0.4-4.9,4.5-8.5,9.3-8.1
							c10.2,0.9,20.1,3.3,29.6,7.2c17.1,7,32.2,18.6,43.7,33.7c4.9,6.4,9,13.4,12.4,20.7c5,11,12.8,20.3,22.6,26.9
							c9.9,6.5,21.2,10,32.8,10c3.6,0,7.1-0.3,10.3-1c4.6-0.9,9.2,2.2,10,7.1c0.9,4.8-2.2,9.5-6.8,10.4
							C264.6,143.5,260.1,143.9,255.4,143.9z"/>
					</g>
				</g>
				<g>
					<g>
						<path class="st5" d="M14.8,111.9c-0.9,0-1.9-0.2-2.8-0.5c-4.5-1.6-6.9-6.6-5.4-11.3c9.7-29.2,31-52.7,58.7-64.6
							c4.4-1.9,9.4,0.3,11.2,4.8c1.8,4.5-0.3,9.7-4.6,11.6c-23.1,9.9-41,29.5-49,53.9C21.7,109.5,18.4,111.9,14.8,111.9z"/>
					</g>
				</g>
				<g>
					<g>
						<path class="st5" d="M255.1,466.7c-33.9,0-61.4-28.5-61.4-63.4s27.6-63.4,61.4-63.4c33.9,0,61.4,28.5,61.4,63.4
							S289,466.7,255.1,466.7z M255.1,357.6c-24.4,0-44.3,20.5-44.3,45.7c0,25.2,19.9,45.7,44.3,45.7c24.4,0,44.3-20.5,44.3-45.7
							C299.4,378.1,279.5,357.6,255.1,357.6z"/>
					</g>
				</g>
				<g>
					<g>
						<path class="st5" d="M105.4,198.5c-33.9,0-61.4-28.5-61.4-63.4c0-35,27.6-63.4,61.4-63.4c33.9,0,61.4,28.5,61.4,63.4
							C166.9,170.1,139.3,198.5,105.4,198.5z M105.4,89.4c-24.4,0-44.3,20.5-44.3,45.7c0,25.2,19.9,45.7,44.3,45.7
							s44.3-20.5,44.3-45.7C149.7,109.9,129.8,89.4,105.4,89.4z"/>
					</g>
				</g>
				<g>
					<g>
						<path class="st5" d="M405.3,198.5c-33.9,0-61.4-28.5-61.4-63.4c0-35,27.6-63.4,61.4-63.4c33.9,0,61.4,28.5,61.4,63.4
							C466.8,170.1,439.2,198.5,405.3,198.5z M405.3,89.4c-24.4,0-44.3,20.5-44.3,45.7c0,25.2,19.8,45.7,44.3,45.7
							c24.4,0,44.3-20.5,44.3-45.7C449.6,109.9,429.8,89.4,405.3,89.4z"/>
					</g>
				</g>
			</g>
			<g>
				<g>
					<path class="st5" d="M255.4,283.9c-31.5,0-57.2-26.5-57.2-59s25.7-59,57.2-59c31.5,0,57.2,26.5,57.2,59
						S286.9,283.9,255.4,283.9z M255.4,183.6c-22.1,0-40,18.5-40,41.3c0,22.8,17.9,41.3,40,41.3c22.1,0,40-18.5,40-41.3
						C295.4,202.1,277.5,183.6,255.4,183.6z"/>
				</g>
			</g>
		</g>
		<g>
			<g>
				<path class="st3" d="M296.6,62.3"/>
			</g>
		</g>
		<g>
			<g>
				<path class="st5" d="M323.8,30.6c-0.9,0-1.7-0.1-2.6-0.4c-18.3-6-37.5-9.5-56.9-10.3c-25.5-1.1-50.5,2.4-74.7,10.3
					c-4.5,1.5-9.3-1.1-10.8-5.8c-1.4-4.7,1.1-9.7,5.6-11.1C210.5,4.8,237.6,1,265,2.2c20.9,0.9,41.6,4.6,61.4,11.1
					c4.5,1.5,7,6.5,5.6,11.1C330.8,28.2,327.4,30.6,323.8,30.6z"/>
			</g>
		</g>
		<g>
			<g>
				<path class="st3" d="M214.2,62.3"/>
			</g>
		</g>
		<g>
			<g>
				<path class="st3" d="M79,283.8"/>
			</g>
		</g>
		<g>
			<g>
				<path class="st3" d="M394.7,362.4"/>
			</g>
		</g>
		<g>
			<g>
				<path class="st3" d="M433.9,271.9"/>
			</g>
		</g>
		<g>
			<g>
				<path class="st5" d="M296.6,71.2c-0.7,0-1.3-0.1-2-0.2c-25.4-6.2-53.1-6.2-78.5,0c-4.6,1.1-9.2-1.8-10.3-6.6
					c-1.1-4.8,1.8-9.5,6.4-10.7c28-6.8,58.5-6.8,86.4,0c4.6,1.1,7.5,5.9,6.4,10.7C304,68.4,300.5,71.2,296.6,71.2z"/>
			</g>
		</g>
		<g>
			<g>
				<path class="st3" d="M394.7,362.4"/>
			</g>
		</g>
		<g>
			<g>
				<path class="st3" d="M433.9,271.9"/>
			</g>
		</g>
	</g>
</g>
<g>
	<g>
		<path class="st5" d="M416.7,397.2c-1.9,0-3.9-0.7-5.4-2c-3.7-3.1-4.2-8.7-1.2-12.5c19.9-24.9,32.8-54.7,37.4-86.2
			c0.7-4.8,5.1-8.2,9.8-7.5c4.7,0.7,7.9,5.2,7.2,10.1c-5,34.6-19.2,67.4-41.1,94.8C421.6,396.1,419.2,397.2,416.7,397.2z"/>
	</g>
</g>
<g>
	<g>
		<path class="st5" d="M442.2,437.8c-2.1,0-4.2-0.8-5.9-2.4c-3.5-3.3-3.6-9-0.4-12.5c33.7-37.1,54.2-85.5,57.9-136.2
			c0.4-4.9,4.5-8.5,9.2-8.2c4.7,0.4,8.3,4.6,7.9,9.5c-4,54.7-26.2,107-62.5,147C446.8,436.9,444.5,437.8,442.2,437.8z"/>
	</g>
</g>
<g>
	<g>
		<path class="st5" d="M75.5,426.2c-2.2,0-4.3-0.8-6-2.5c-37.3-37.3-61.8-86.9-69-139.6c-0.7-4.8,2.6-9.3,7.3-10
			c4.7-0.7,9,2.7,9.7,7.5c6.7,48.8,29.4,94.7,64,129.3c3.4,3.4,3.5,9,0.2,12.5C80,425.3,77.8,426.2,75.5,426.2z"/>
	</g>
</g>
<g>
	<g>
		<path class="st5" d="M98.2,383.3c-2.3,0-4.7-1-6.4-2.9c-21.9-25.1-37.2-55.8-44.2-88.7c-1-4.8,1.9-9.5,6.5-10.6
			c4.6-1.1,9.2,2,10.2,6.8c6.4,29.9,20.3,57.8,40.2,80.7c3.2,3.6,2.9,9.2-0.6,12.5C102.3,382.6,100.2,383.3,98.2,383.3z"/>
	</g>
</g>
</svg>
