<?xml version="1.0" encoding="utf-8"?>
<!-- Generator: Adobe Illustrator 26.1.0, SVG Export Plug-In . SVG Version: 6.00 Build 0)  -->
<svg version="1.1" id="Layer_1" xmlns="http://www.w3.org/2000/svg" xmlns:xlink="http://www.w3.org/1999/xlink" x="0px" y="0px"
	 viewBox="0 0 511 511" style="enable-background:new 0 0 511 511;" xml:space="preserve">
<style type="text/css">
	.st0{fill:#FFCA3A;}
	.st1{fill:#F99410;}
	.st2{fill:#FF3154;}
	.st3{fill:#FFFAE3;}
	.st4{fill:#2CE1FF;}
	.st5{fill:#1EA0E2;}
	.st6{fill:#001363;}
</style>
<g>
	<g>
		<g>
			<polygon class="st0" points="500.5,127.8 358.6,203.8 358,204.2 357.9,204.2 286.1,242.6 178.8,185.2 71.6,127.8 143.5,89.2 
				217.4,49.7 286,12.9 393.2,70.3 393.3,70.3 			"/>
		</g>
		<g>
			<polygon class="st1" points="500.5,127.8 358.6,203.8 358,204.2 357.9,204.2 286.1,242.6 178.8,185.2 250.7,146.6 324.6,107.1 
				393.2,70.3 393.3,70.3 			"/>
		</g>
		<g>
			<polygon class="st2" points="500.5,127.8 500.5,384.5 286,499.4 286,242.6 			"/>
		</g>
		<g>
			<polygon class="st3" points="462.2,228.9 462.2,322.1 339.1,395.2 339.1,302 			"/>
		</g>
		<g>
			<polygon class="st4" points="286,242.6 286,499.4 178.8,442 71.6,384.5 71.6,127.8 178.8,185.2 			"/>
		</g>
		<g>
			<g>
				<path class="st5" d="M129,353.6H11.5c-5.3,0-9.5-4.8-9.5-10.8c0-6,4.3-10.8,9.5-10.8H129c5.3,0,9.5,4.8,9.5,10.8
					C138.5,348.8,134.3,353.6,129,353.6z"/>
			</g>
		</g>
		<g>
			<g>
				<path class="st5" d="M97.1,207.4H11.5c-5.3,0-9.5-4.8-9.5-10.8s4.3-10.8,9.5-10.8h85.6c5.3,0,9.5,4.8,9.5,10.8
					S102.4,207.4,97.1,207.4z"/>
			</g>
		</g>
		<g>
			<g>
				<path class="st5" d="M143.8,280.5H40c-5.3,0-9.5-4.8-9.5-10.8c0-6,4.3-10.8,9.5-10.8h103.8c5.3,0,9.5,4.8,9.5,10.8
					C153.3,275.7,149,280.5,143.8,280.5z"/>
			</g>
		</g>
	</g>
	<g>
		<path class="st6" d="M510,127.6C510,127.6,510,127.6,510,127.6c0-1-0.1-2-0.4-2.9c-0.1-0.3-0.2-0.6-0.3-0.9
			c-0.2-0.6-0.4-1.2-0.7-1.7c-0.2-0.3-0.4-0.6-0.6-0.9c-0.3-0.4-0.6-0.9-1-1.3c-0.3-0.3-0.6-0.5-0.9-0.8c-0.2-0.2-0.4-0.4-0.6-0.6
			c-0.2-0.1-0.4-0.2-0.6-0.3c-0.2-0.1-0.3-0.3-0.5-0.4L397.3,60.4c-0.2-0.1-0.4-0.2-0.6-0.3L290.1,3c-2.6-1.4-5.5-1.4-8.1,0
			L67.5,117.9c-0.2,0.1-0.3,0.2-0.4,0.3c-0.2,0.1-0.4,0.2-0.6,0.3c-0.3,0.2-0.5,0.4-0.7,0.6c-0.3,0.2-0.5,0.5-0.8,0.7
			c-0.4,0.4-0.7,0.9-1,1.3c-0.2,0.3-0.4,0.6-0.6,0.9c-0.3,0.6-0.5,1.2-0.7,1.8c-0.1,0.3-0.2,0.6-0.3,0.9c-0.2,0.9-0.4,1.9-0.4,2.9
			v58H11.5c-5.3,0-9.5,4.8-9.5,10.8c0,6,4.3,10.8,9.5,10.8h50.6v51.6H40c-5.3,0-9.5,4.8-9.5,10.8c0,6,4.3,10.8,9.5,10.8h22.1v51.6
			H11.5c-5.3,0-9.5,4.8-9.5,10.8s4.3,10.8,9.5,10.8h50.6v30.9c0,4.2,2.1,8,5.4,9.8l107.2,57.5c4.7,2.5,10.4,0.2,12.7-5.1
			c2.2-5.4,0.2-11.8-4.5-14.4L81.1,377.5v-24.1H129c5.3,0,9.5-4.8,9.5-10.8s-4.3-10.8-9.5-10.8H81.1v-51.6h62.7
			c5.3,0,9.5-4.8,9.5-10.8c0-6-4.3-10.8-9.5-10.8H81.1v-51.6h16.1c5.3,0,9.5-4.8,9.5-10.8c0-6-4.3-10.8-9.5-10.8H81.1v-41
			l195.4,104.7v232.9l-112.9-61.4c-4.7-2.5-10.4-0.2-12.7,5.1c-2.2,5.4-0.2,11.8,4.5,14.4L282,509c0.3,0.2,0.6,0.3,1,0.4
			c0.2,0.1,0.5,0.2,0.7,0.3c0.8,0.2,1.6,0.4,2.4,0.4c0.8,0,1.6-0.2,2.4-0.4c0.2-0.1,0.5-0.2,0.7-0.3c0.3-0.1,0.7-0.2,1-0.4
			l214.5-114.9c3.3-1.8,5.4-5.6,5.4-9.8v-41.5c0-6-4.3-10.8-9.5-10.8c-5.3,0-9.5,4.8-9.5,10.8v34.7L295.5,482.2V249.3l53.4-28.6
			l12.9-6.9c0.2-0.1,0.4-0.2,0.7-0.4l76.2-40.8l52.4-28v68.1c0,6,4.3,10.8,9.5,10.8c5.3,0,9.5-4.8,9.5-10.8V127.6
			C510,127.6,510,127.6,510,127.6C510,127.6,510,127.6,510,127.6z M354.1,194.1L354.1,194.1c-0.1,0.1-0.2,0.1-0.2,0.1l-26.3,14.1
			l-41.4,22.2l-85-45.5L393.2,82.1l85,45.5L354.1,194.1z M286,24.7L371,70.2L178.8,173.1l-85-45.5L286,24.7z"/>
		<path class="st6" d="M500.5,258.9c-5.3,0-9.5,4.8-9.5,10.8v10.8c0,6,4.3,10.8,9.5,10.8c5.3,0,9.5-4.8,9.5-10.8v-10.8
			C510,263.7,505.7,258.9,500.5,258.9z"/>
		<path class="st6" d="M451.6,218.6l-117.3,70.1c-4.8,2.9-7.9,9-7.9,15.7v89.4c0,6,2.4,11.5,6.4,14.7c2.2,1.8,4.8,2.7,7.4,2.7
			c2,0,4-0.6,5.9-1.7l117.3-70.1c4.8-2.9,7.9-9,7.9-15.7v-89.4c0-6-2.4-11.5-6.4-14.7C460.8,216.4,455.8,216.1,451.6,218.6z
			 M453.1,324.8l-103,58.1l0.3-79.5l103-61.1L453.1,324.8z"/>
	</g>
</g>
</svg>
